<svg width="50" height="50" viewBox="0 0 50 50" fill="none" xmlns="http://www.w3.org/2000/svg">
<circle cx="25" cy="25" r="25" fill="#BE0D0D"/>
<path d="M24 22H26V20H24M25 33C20.59 33 17 29.41 17 25C17 20.59 20.59 17 25 17C29.41 17 33 20.59 33 25C33 29.41 29.41 33 25 33ZM25 15C23.6868 15 22.3864 15.2587 21.1732 15.7612C19.9599 16.2638 18.8575 17.0003 17.9289 17.9289C16.0536 19.8043 15 22.3478 15 25C15 27.6522 16.0536 30.1957 17.9289 32.0711C18.8575 32.9997 19.9599 33.7362 21.1732 34.2388C22.3864 34.7413 23.6868 35 25 35C27.6522 35 30.1957 33.9464 32.0711 32.0711C33.9464 30.1957 35 27.6522 35 25C35 23.6868 34.7413 22.3864 34.2388 21.1732C33.7362 19.9599 32.9997 18.8575 32.0711 17.9289C31.1425 17.0003 30.0401 16.2638 28.8268 15.7612C27.6136 15.2587 26.3132 15 25 15ZM24 30H26V24H24V30Z" fill="white"/>
</svg>
