<svg width="13" height="14" viewBox="0 0 13 14" fill="none" xmlns="http://www.w3.org/2000/svg">
<path d="M3.22184 3.66667C3.22184 1.92 4.64184 0.5 6.38851 0.5C8.13518 0.5 9.55517 1.92 9.55517 3.66667C9.55517 5.41333 8.13518 6.83333 6.38851 6.83333C4.64184 6.83333 3.22184 5.41333 3.22184 3.66667ZM8.88851 12.5H8.38851C7.56184 12.5 6.88851 11.8267 6.88851 11C6.88851 10.1733 7.56184 9.5 8.38851 9.5H8.88851V9C8.88851 8.59333 9.04851 8.22667 9.31518 7.95333C9.01517 7.87333 8.70851 7.83333 8.38851 7.83333H4.38851C2.27518 7.83333 0.555176 9.55333 0.555176 11.6667C0.555176 12.68 1.37518 13.5 2.38851 13.5H8.97517C8.92184 13.3467 8.88851 13.1733 8.88851 13V12.5ZM11.8885 12.72C11.9352 12.6467 11.9818 12.58 12.0218 12.5H11.8885V12.72ZM12.3885 10.5H10.8885V9C10.8885 8.724 10.6645 8.5 10.3885 8.5C10.1125 8.5 9.88851 8.724 9.88851 9V10.5H8.38851C8.11251 10.5 7.88851 10.724 7.88851 11C7.88851 11.276 8.11251 11.5 8.38851 11.5H9.88851V13C9.88851 13.276 10.1125 13.5 10.3885 13.5C10.6645 13.5 10.8885 13.276 10.8885 13V11.5H12.3885C12.6645 11.5 12.8885 11.276 12.8885 11C12.8885 10.724 12.6645 10.5 12.3885 10.5Z" fill="white"/>
</svg>
