<svg width="229" height="58" viewBox="0 0 229 58" fill="none" xmlns="http://www.w3.org/2000/svg">
<rect x="0.15625" y="0.519531" width="228.267" height="57.3333" rx="28.6667" fill="#D80621"/>
<path d="M89.7882 33.5195H83.2882L82.0482 36.5195H78.7282L84.9682 22.5195H88.1682L94.4282 36.5195H91.0282L89.7882 33.5195ZM88.7682 31.0595L86.5482 25.6995L84.3282 31.0595H88.7682ZM106.523 21.6795V36.5195H103.543V35.2795C102.77 36.2129 101.65 36.6795 100.183 36.6795C99.1697 36.6795 98.2497 36.4529 97.423 35.9995C96.6097 35.5462 95.9697 34.8995 95.503 34.0595C95.0364 33.2195 94.803 32.2462 94.803 31.1395C94.803 30.0329 95.0364 29.0595 95.503 28.2195C95.9697 27.3795 96.6097 26.7329 97.423 26.2795C98.2497 25.8262 99.1697 25.5995 100.183 25.5995C101.556 25.5995 102.63 26.0329 103.403 26.8995V21.6795H106.523ZM100.723 34.1195C101.51 34.1195 102.163 33.8529 102.683 33.3195C103.203 32.7729 103.463 32.0462 103.463 31.1395C103.463 30.2329 103.203 29.5129 102.683 28.9795C102.163 28.4329 101.51 28.1595 100.723 28.1595C99.923 28.1595 99.263 28.4329 98.743 28.9795C98.223 29.5129 97.963 30.2329 97.963 31.1395C97.963 32.0462 98.223 32.7729 98.743 33.3195C99.263 33.8529 99.923 34.1195 100.723 34.1195ZM120.371 21.6795V36.5195H117.391V35.2795C116.617 36.2129 115.497 36.6795 114.031 36.6795C113.017 36.6795 112.097 36.4529 111.271 35.9995C110.457 35.5462 109.817 34.8995 109.351 34.0595C108.884 33.2195 108.651 32.2462 108.651 31.1395C108.651 30.0329 108.884 29.0595 109.351 28.2195C109.817 27.3795 110.457 26.7329 111.271 26.2795C112.097 25.8262 113.017 25.5995 114.031 25.5995C115.404 25.5995 116.477 26.0329 117.251 26.8995V21.6795H120.371ZM114.571 34.1195C115.357 34.1195 116.011 33.8529 116.531 33.3195C117.051 32.7729 117.311 32.0462 117.311 31.1395C117.311 30.2329 117.051 29.5129 116.531 28.9795C116.011 28.4329 115.357 28.1595 114.571 28.1595C113.771 28.1595 113.111 28.4329 112.591 28.9795C112.071 29.5129 111.811 30.2329 111.811 31.1395C111.811 32.0462 112.071 32.7729 112.591 33.3195C113.111 33.8529 113.771 34.1195 114.571 34.1195ZM135.862 35.9995C135.556 36.2262 135.176 36.3995 134.722 36.5195C134.282 36.6262 133.816 36.6795 133.322 36.6795C132.042 36.6795 131.049 36.3529 130.342 35.6995C129.649 35.0462 129.302 34.0862 129.302 32.8195V28.3995H127.642V25.9995H129.302V23.3795H132.422V25.9995H135.102V28.3995H132.422V32.7795C132.422 33.2329 132.536 33.5862 132.762 33.8395C133.002 34.0795 133.336 34.1995 133.762 34.1995C134.256 34.1995 134.676 34.0662 135.022 33.7995L135.862 35.9995ZM142.402 36.6795C141.268 36.6795 140.248 36.4462 139.342 35.9795C138.448 35.4995 137.748 34.8395 137.242 33.9995C136.735 33.1595 136.482 32.2062 136.482 31.1395C136.482 30.0729 136.735 29.1195 137.242 28.2795C137.748 27.4395 138.448 26.7862 139.342 26.3195C140.248 25.8395 141.268 25.5995 142.402 25.5995C143.535 25.5995 144.548 25.8395 145.442 26.3195C146.335 26.7862 147.035 27.4395 147.542 28.2795C148.048 29.1195 148.302 30.0729 148.302 31.1395C148.302 32.2062 148.048 33.1595 147.542 33.9995C147.035 34.8395 146.335 35.4995 145.442 35.9795C144.548 36.4462 143.535 36.6795 142.402 36.6795ZM142.402 34.1195C143.202 34.1195 143.855 33.8529 144.362 33.3195C144.882 32.7729 145.142 32.0462 145.142 31.1395C145.142 30.2329 144.882 29.5129 144.362 28.9795C143.855 28.4329 143.202 28.1595 142.402 28.1595C141.602 28.1595 140.942 28.4329 140.422 28.9795C139.902 29.5129 139.642 30.2329 139.642 31.1395C139.642 32.0462 139.902 32.7729 140.422 33.3195C140.942 33.8529 141.602 34.1195 142.402 34.1195ZM161.251 36.6795C160.105 36.6795 159.071 36.4462 158.151 35.9795C157.245 35.4995 156.531 34.8395 156.011 33.9995C155.505 33.1595 155.251 32.2062 155.251 31.1395C155.251 30.0729 155.505 29.1195 156.011 28.2795C156.531 27.4395 157.245 26.7862 158.151 26.3195C159.071 25.8395 160.105 25.5995 161.251 25.5995C162.385 25.5995 163.371 25.8395 164.211 26.3195C165.065 26.7862 165.685 27.4595 166.071 28.3395L163.651 29.6395C163.091 28.6529 162.285 28.1595 161.231 28.1595C160.418 28.1595 159.745 28.4262 159.211 28.9595C158.678 29.4929 158.411 30.2195 158.411 31.1395C158.411 32.0595 158.678 32.7862 159.211 33.3195C159.745 33.8529 160.418 34.1195 161.231 34.1195C162.298 34.1195 163.105 33.6262 163.651 32.6395L166.071 33.9595C165.685 34.8129 165.065 35.4795 164.211 35.9595C163.371 36.4395 162.385 36.6795 161.251 36.6795ZM172.208 25.5995C173.874 25.5995 175.154 25.9995 176.048 26.7995C176.941 27.5862 177.388 28.7795 177.388 30.3795V36.5195H174.468V35.1795C173.881 36.1795 172.788 36.6795 171.188 36.6795C170.361 36.6795 169.641 36.5395 169.028 36.2595C168.428 35.9795 167.968 35.5929 167.648 35.0995C167.328 34.6062 167.168 34.0462 167.168 33.4195C167.168 32.4195 167.541 31.6329 168.288 31.0595C169.048 30.4862 170.214 30.1995 171.788 30.1995H174.268C174.268 29.5195 174.061 28.9995 173.648 28.6395C173.234 28.2662 172.614 28.0795 171.788 28.0795C171.214 28.0795 170.648 28.1729 170.088 28.3595C169.541 28.5329 169.074 28.7729 168.688 29.0795L167.568 26.8995C168.154 26.4862 168.854 26.1662 169.668 25.9395C170.494 25.7129 171.341 25.5995 172.208 25.5995ZM171.968 34.5795C172.501 34.5795 172.974 34.4595 173.388 34.2195C173.801 33.9662 174.094 33.5995 174.268 33.1195V32.0195H172.128C170.848 32.0195 170.208 32.4395 170.208 33.2795C170.208 33.6795 170.361 33.9995 170.668 34.2395C170.988 34.4662 171.421 34.5795 171.968 34.5795ZM183.191 27.1795C183.565 26.6595 184.065 26.2662 184.691 25.9995C185.331 25.7329 186.065 25.5995 186.891 25.5995V28.4795C186.545 28.4529 186.311 28.4395 186.191 28.4395C185.298 28.4395 184.598 28.6929 184.091 29.1995C183.585 29.6929 183.331 30.4395 183.331 31.4395V36.5195H180.211V25.7595H183.191V27.1795ZM196.058 35.9995C195.751 36.2262 195.371 36.3995 194.918 36.5195C194.478 36.6262 194.011 36.6795 193.518 36.6795C192.238 36.6795 191.244 36.3529 190.538 35.6995C189.844 35.0462 189.498 34.0862 189.498 32.8195V28.3995H187.838V25.9995H189.498V23.3795H192.618V25.9995H195.298V28.3995H192.618V32.7795C192.618 33.2329 192.731 33.5862 192.958 33.8395C193.198 34.0795 193.531 34.1995 193.958 34.1995C194.451 34.1995 194.871 34.0662 195.218 33.7995L196.058 35.9995Z" fill="white"/>
<path fill-rule="evenodd" clip-rule="evenodd" d="M55.0226 38.3583H47.1292C44.2298 38.3583 42.0055 37.3013 42.6373 33.0468L43.373 27.281C43.7624 25.1582 45.104 24.3457 46.281 24.3457H55.9054C57.0998 24.3457 58.3634 25.2193 58.8135 27.281L59.5492 33.0468C60.0858 36.8209 57.922 38.3583 55.0226 38.3583Z" stroke="white" stroke-width="1.72" stroke-linecap="round" stroke-linejoin="round"/>
<path d="M55.1525 24.1362C55.1525 21.8589 53.3235 20.0127 51.0673 20.0127C49.9809 20.0081 48.9373 20.4405 48.1675 21.2143C47.3976 21.9881 46.9648 23.0395 46.9648 24.1362" stroke="white" stroke-width="1.72" stroke-linecap="round" stroke-linejoin="round"/>
<path d="M53.8717 28.4346H53.8281" stroke="white" stroke-width="1.72" stroke-linecap="round" stroke-linejoin="round"/>
<path d="M48.3591 28.4346H48.3154" stroke="white" stroke-width="1.72" stroke-linecap="round" stroke-linejoin="round"/>
</svg>
