<svg width="64" height="64" viewBox="0 0 64 64" fill="none" xmlns="http://www.w3.org/2000/svg">
<path d="M55.1711 3.70962C50.0397 -0.514487 34.7899 -0.0413187 31.9999 0.0762567C29.2099 -0.0413187 13.96 -0.514487 8.82862 3.70962C8.0662 4.20287 -1.40506 10.9391 0.17811 39.3522C0.235049 40.9466 1.18495 60.3867 13.0712 62.2937C13.8795 62.4027 21.0788 63.696 31.9999 64C42.9196 63.696 50.1189 62.4027 50.9285 62.2937C62.8148 60.3867 63.7647 40.9495 63.8216 39.3522C65.4062 10.9391 55.9335 4.20287 55.1711 3.70962Z" fill="#8A4016"/>
<path d="M54.9946 7.24837C50.0479 3.27661 34.662 3.71537 31.9997 3.82434C29.3375 3.71824 13.9516 3.27948 9.00486 7.24837C9.00486 7.24837 -0.709424 12.5765 0.909856 39.7451C0.909856 39.7451 1.31676 58.4969 13.1364 60.315C13.1364 60.315 21.648 61.574 31.9997 61.9066C42.3515 61.574 50.8631 60.315 50.8631 60.315C62.6827 58.4969 63.0896 39.7451 63.0896 39.7451C64.7089 12.5765 54.9946 7.24837 54.9946 7.24837Z" fill="#E3A404"/>
<path d="M54.9666 5.25855C50.0254 1.29827 34.6589 1.73416 31.9995 1.84313C29.34 1.73703 13.9735 1.29827 9.03236 5.25855C9.03236 5.25855 -0.669431 10.5753 0.947071 37.6778C0.947071 37.6778 1.35397 56.3838 13.1597 58.1962C13.1597 58.1962 21.6602 59.4522 31.9995 59.782C42.3387 59.4494 50.8392 58.1962 50.8392 58.1962C62.6435 56.3838 63.0518 37.6778 63.0518 37.6778C64.6697 10.5753 54.9666 5.25855 54.9666 5.25855Z" fill="#FED335"/>
<path d="M9.03274 6.68325C13.9739 2.72296 29.3404 3.15885 31.9998 3.26783C34.6593 3.16172 50.0258 2.72296 54.9669 6.68325C54.9669 6.68325 57.7875 8.2318 60.1317 13.8754C61.1108 16.0405 62.0329 18.8623 62.6745 22.5273C60.8247 8.47269 54.9669 5.25514 54.9669 5.25514C50.0258 1.29485 34.6593 1.73074 31.9998 1.83971C29.3404 1.73361 13.9739 1.29485 9.03274 5.25514C9.03274 5.25514 3.17501 8.46982 1.3252 22.5273C1.9668 18.8623 2.88892 16.0405 3.86799 13.8754C6.2122 8.2318 9.03274 6.68325 9.03274 6.68325Z" fill="#FFFFBD"/>
<path d="M53.7768 7.54959C49.0759 4.11696 34.9426 4.44961 31.9999 4.55571C29.0557 4.45248 14.9224 4.11696 10.2229 7.54959C10.1243 7.59834 0.315591 12.7745 1.99736 37.3076C2.00153 37.4826 2.62369 54.8751 14.3308 56.504C14.7836 56.5556 21.6245 57.6109 31.9999 57.8633C42.3752 57.6138 49.2162 56.5556 49.6689 56.504C61.376 54.8751 61.9982 37.4826 62.0024 37.3076C63.6841 12.7745 53.8768 7.59834 53.7768 7.54959Z" fill="#BC263C"/>
<path d="M53.6406 9.13783C49.0119 5.80557 34.8328 6.11814 31.9997 6.21565C29.1667 6.11814 14.9876 5.80557 10.3589 9.13783C10.3589 9.13783 1.13202 13.6745 2.74852 36.7365C2.74852 36.7365 3.18598 52.5862 14.3834 54.1205C14.3834 54.1205 22.3201 55.1786 32.0011 55.4625C41.682 55.1815 49.6187 54.1205 49.6187 54.1205C60.8148 52.5862 61.2537 36.7365 61.2537 36.7365C62.8688 13.6745 53.6433 9.13783 53.6433 9.13783H53.6406Z" fill="#E8313F"/>
<path d="M56.3446 47.8229C56.2488 47.9376 56.103 48.0925 55.9058 48.2445C55.51 48.5542 54.9059 48.8381 54.1296 49.1019C52.5756 49.6181 50.3244 49.9422 47.6191 50.183C44.9111 50.4039 42.4141 50.5329 39.0228 50.6189C37.3271 50.6447 36.3744 50.6706 34.5927 50.6964C33.54 50.6964 32.8012 50.7021 31.9999 50.7021C31.2 50.7021 30.4612 50.6964 29.4071 50.6964C27.6253 50.6706 26.6727 50.6419 24.977 50.6189C21.5857 50.5329 19.0887 50.4039 16.3807 50.183C13.6754 49.9422 11.4242 49.6181 9.87021 49.1019C9.0939 48.8381 8.49118 48.5542 8.094 48.2445C7.8968 48.0896 7.75098 47.9376 7.65516 47.8229C7.56211 47.6939 7.51489 47.6279 7.51489 47.6279C7.51489 47.6279 7.55933 47.7082 7.64405 47.8631C7.73293 48.0065 7.8718 48.2072 8.06206 48.4194C8.44396 48.841 9.03279 49.3428 9.80355 49.7844C11.3437 50.6964 13.5907 51.5395 16.3015 52.1962C19.0137 52.8758 21.5232 53.3863 24.9298 53.716C26.6352 53.8652 27.5948 54.0458 29.3849 54.0946C30.4473 54.1204 31.1903 54.1462 31.9999 54.172C32.8095 54.1462 33.5511 54.1204 34.6149 54.0946C36.4064 54.0458 37.366 53.8652 39.07 53.716C42.478 53.3863 44.9861 52.8758 47.6983 52.1962C50.4091 51.5395 52.6561 50.6992 54.1962 49.7844C54.967 49.3428 55.5558 48.841 55.9377 48.4194C56.1294 48.2043 56.2669 48.0065 56.3557 47.8631C56.4405 47.7082 56.4849 47.6279 56.4849 47.6279C56.4849 47.6279 56.4363 47.6939 56.3446 47.8229Z" fill="white"/>
<path d="M55.4755 12.9034C55.0964 12.4618 54.5117 11.9427 53.7507 11.4839C52.23 10.5404 50.0205 9.6744 47.3638 9.0349C44.7099 8.3782 42.256 7.93371 38.9355 7.69282C37.276 7.59532 36.3386 7.46628 34.5971 7.46914C33.5402 7.45767 32.8084 7.46341 32.0001 7.47488C31.1932 7.46341 30.46 7.45767 29.4031 7.46914C27.6617 7.46628 26.7243 7.59245 25.0647 7.69282C21.7442 7.93371 19.2903 8.3782 16.6364 9.0349C13.9797 9.6744 11.7688 10.5404 10.2495 11.4839C9.48851 11.9427 8.90385 12.4618 8.52472 12.9034C8.13865 13.3336 7.99422 13.7809 8.00811 13.7924C7.997 13.7752 8.15809 13.3823 8.55528 13.0669C8.94551 12.7314 9.54129 12.4188 10.3037 12.1291C11.8313 11.5613 14.0353 11.1799 16.6808 10.9362C18.0029 10.8157 19.4375 10.7613 20.954 10.6924C22.4705 10.6293 23.419 10.6494 25.0744 10.6207C26.7298 10.6437 27.6589 10.6638 29.3976 10.6867C30.4586 10.6982 31.1905 10.7268 32.0015 10.7641C32.8125 10.7268 33.5444 10.701 34.6054 10.6867C36.3441 10.6638 37.2732 10.6408 38.9286 10.6207C40.5826 10.6494 41.5325 10.6265 43.049 10.6924C44.5655 10.7613 45.9987 10.8157 47.3222 10.9362C49.9677 11.1799 52.1717 11.5613 53.6993 12.1291C54.4617 12.4188 55.0575 12.7314 55.4477 13.0669C55.8435 13.3795 56.006 13.7752 55.9949 13.7924C56.0088 13.7809 55.8643 13.3336 55.4783 12.9034H55.4755Z" fill="white"/>
<path d="M13.2236 12.9523C12.5389 10.5205 10.4364 9.94408 8.52545 11.6618C6.61454 13.3796 5.62019 16.7434 6.30485 19.1752C6.9895 21.607 7.93801 19.4734 9.84893 17.7557C11.7598 16.0379 13.9082 15.3841 13.2236 12.9523Z" fill="white"/>
<path d="M6.41242 20.3394C5.94858 19.6856 5.33892 19.7114 4.95562 20.675C4.57233 21.6385 4.55983 23.1699 5.02367 23.8237C5.48751 24.4775 6.17494 24.228 6.55963 23.2645C6.94292 22.3038 6.87765 20.9933 6.41242 20.3394Z" fill="white"/>
<path d="M38.48 30.9998C37.641 30.2966 36.5744 29.9233 35.48 29.9498H28.445C28.1242 29.9579 27.8051 29.9012 27.5068 29.7831C27.2085 29.665 26.937 29.4879 26.7088 29.2624C26.4805 29.037 26.3 28.7677 26.1783 28.4709C26.0565 28.174 25.9958 27.8557 26 27.5348C25.9921 27.41 25.9921 27.2847 26 27.1598C26.0945 26.5866 26.3952 26.0675 26.8454 25.7002C27.2955 25.3328 27.8644 25.1425 28.445 25.1648H35.375C35.9403 25.1643 36.4873 25.3647 36.9187 25.73C37.35 26.0954 37.6375 26.6022 37.73 27.1598H39.98C39.8858 26.0032 39.3598 24.9244 38.5066 24.1379C37.6533 23.3514 36.5354 22.9148 35.375 22.9148H33.005V19.4648H31.13V22.9148H28.445C27.2845 22.9148 26.1666 23.3514 25.3134 24.1379C24.4601 24.9244 23.9342 26.0032 23.84 27.1598C23.8325 27.2847 23.8325 27.41 23.84 27.5348C23.84 28.1396 23.9591 28.7384 24.1905 29.2971C24.4219 29.8558 24.7611 30.3635 25.1887 30.7911C26.0523 31.6547 27.2236 32.1398 28.445 32.1398H35.555C35.8732 32.1318 36.1898 32.1876 36.4861 32.3039C36.7824 32.4201 37.0525 32.5946 37.2803 32.8168C37.5082 33.0391 37.6893 33.3047 37.8129 33.5981C37.9364 33.8914 38.0001 34.2065 38 34.5248C38.0155 34.6945 38.0155 34.8652 38 35.0348C37.8809 35.5626 37.5859 36.0342 37.1634 36.3722C36.7409 36.7102 36.216 36.8945 35.675 36.8948H28.625C28.0839 36.8945 27.5591 36.7102 27.1366 36.3722C26.7141 36.0342 26.4191 35.5626 26.3 35.0348H24.035C24.1639 36.1619 24.7029 37.2021 25.5494 37.9573C26.3959 38.7125 27.4906 39.1298 28.625 39.1298H31.13V42.5348H33.005V39.1298H35.555C36.6893 39.1298 37.7841 38.7125 38.6305 37.9573C39.477 37.2021 40.0161 36.1619 40.145 35.0348V34.5248C40.1432 33.8511 39.993 33.186 39.7053 32.5768C39.4175 31.9676 38.9992 31.4292 38.48 30.9998Z" fill="white"/>
</svg>
