<svg width="40" height="40" viewBox="0 0 40 40" fill="none" xmlns="http://www.w3.org/2000/svg">
<rect width="40" height="40" rx="4" fill="#9F6ABB"/>
<path fill-rule="evenodd" clip-rule="evenodd" d="M20.0002 29.1886L20.7214 28.376C21.5396 27.4389 22.2756 26.5498 22.9305 25.704L23.4711 24.9909C25.7282 21.9497 26.8574 19.536 26.8574 17.752C26.8574 13.944 23.7876 10.8572 20.0002 10.8572C16.2128 10.8572 13.1431 13.944 13.1431 17.752C13.1431 19.536 14.2722 21.9497 16.5294 24.9909L17.0699 25.704C18.0041 26.9011 18.9815 28.0626 20.0002 29.1886Z" stroke="white" stroke-width="1.14286" stroke-linecap="round" stroke-linejoin="round"/>
<path d="M20.0002 20.5715C21.5782 20.5715 22.8574 19.2923 22.8574 17.7143C22.8574 16.1364 21.5782 14.8572 20.0002 14.8572C18.4223 14.8572 17.1431 16.1364 17.1431 17.7143C17.1431 19.2923 18.4223 20.5715 20.0002 20.5715Z" stroke="white" stroke-width="1.14286" stroke-linecap="round" stroke-linejoin="round"/>
</svg>
