<svg width="50" height="50" viewBox="0 0 50 50" fill="none" xmlns="http://www.w3.org/2000/svg">
<circle cx="25" cy="25" r="25" fill="#BE0D0D"/>
<path d="M25 15C20.6 15 17 18.6 17 23C17 28.4 24 34.5 24.3 34.8C24.5 34.9 24.8 35 25 35C25.2 35 25.5 34.9 25.7 34.8C26 34.5 33 28.4 33 23C33 18.6 29.4 15 25 15ZM25 32.7C22.9 30.7 19 26.4 19 23C19 19.7 21.7 17 25 17C28.3 17 31 19.7 31 23C31 26.3 27.1 30.7 25 32.7ZM25 19C22.8 19 21 20.8 21 23C21 25.2 22.8 27 25 27C27.2 27 29 25.2 29 23C29 20.8 27.2 19 25 19ZM25 25C23.9 25 23 24.1 23 23C23 21.9 23.9 21 25 21C26.1 21 27 21.9 27 23C27 24.1 26.1 25 25 25Z" fill="white"/>
</svg>
