<svg width="40" height="40" viewBox="0 0 40 40" fill="none" xmlns="http://www.w3.org/2000/svg">
<rect width="40" height="40" rx="4" fill="#BE0D0D"/>
<path fill-rule="evenodd" clip-rule="evenodd" d="M20 29.1886L20.7211 28.376C21.5394 27.4389 22.2754 26.5498 22.9303 25.704L23.4708 24.9909C25.728 21.9497 26.8571 19.536 26.8571 17.752C26.8571 13.944 23.7874 10.8572 20 10.8572C16.2125 10.8572 13.1428 13.944 13.1428 17.752C13.1428 19.536 14.272 21.9497 16.5291 24.9909L17.0697 25.704C18.0039 26.9011 18.9813 28.0626 20 29.1886Z" stroke="white" stroke-width="1.14286" stroke-linecap="round" stroke-linejoin="round"/>
<path d="M19.9997 20.5715C21.5777 20.5715 22.8569 19.2923 22.8569 17.7143C22.8569 16.1364 21.5777 14.8572 19.9997 14.8572C18.4218 14.8572 17.1426 16.1364 17.1426 17.7143C17.1426 19.2923 18.4218 20.5715 19.9997 20.5715Z" stroke="white" stroke-width="1.14286" stroke-linecap="round" stroke-linejoin="round"/>
</svg>
