<svg width="32" height="32" viewBox="0 0 32 32" fill="none" xmlns="http://www.w3.org/2000/svg">
<rect width="32" height="32" rx="4" fill="#BE0D0D"/>
<path fill-rule="evenodd" clip-rule="evenodd" d="M12.293 16.7073C12.1056 16.5198 12.0002 16.2655 12.0002 16.0003C12.0002 15.7352 12.1056 15.4809 12.293 15.2933L17.95 9.63634C18.0423 9.54083 18.1526 9.46465 18.2746 9.41224C18.3966 9.35983 18.5279 9.33225 18.6606 9.33109C18.7934 9.32994 18.9251 9.35524 19.048 9.40552C19.1709 9.4558 19.2825 9.53006 19.3764 9.62395C19.4703 9.71784 19.5446 9.82949 19.5949 9.95239C19.6451 10.0753 19.6704 10.207 19.6693 10.3397C19.6681 10.4725 19.6405 10.6037 19.5881 10.7257C19.5357 10.8478 19.4595 10.9581 19.364 11.0503L14.414 16.0003L19.364 20.9503C19.5462 21.1389 19.647 21.3915 19.6447 21.6537C19.6424 21.9159 19.5373 22.1668 19.3518 22.3522C19.1664 22.5376 18.9156 22.6427 18.6534 22.645C18.3912 22.6473 18.1386 22.5465 17.95 22.3643L12.293 16.7073Z" fill="white"/>
</svg>
