<svg width="32" height="32" viewBox="0 0 32 32" fill="none" xmlns="http://www.w3.org/2000/svg">
<rect width="32" height="32" rx="4" fill="#7F7F7F"/>
<path fill-rule="evenodd" clip-rule="evenodd" d="M12.2928 16.7069C12.1053 16.5193 12 16.265 12 15.9999C12 15.7347 12.1053 15.4804 12.2928 15.2929L17.9498 9.63585C18.042 9.54034 18.1524 9.46416 18.2744 9.41175C18.3964 9.35934 18.5276 9.33176 18.6604 9.3306C18.7932 9.32945 18.9248 9.35475 19.0477 9.40503C19.1706 9.45531 19.2823 9.52957 19.3762 9.62346C19.4701 9.71735 19.5443 9.829 19.5946 9.9519C19.6449 10.0748 19.6702 10.2065 19.669 10.3393C19.6679 10.472 19.6403 10.6033 19.5879 10.7253C19.5355 10.8473 19.4593 10.9576 19.3638 11.0499L14.4138 15.9999L19.3638 20.9499C19.5459 21.1385 19.6467 21.3911 19.6445 21.6533C19.6422 21.9155 19.537 22.1663 19.3516 22.3517C19.1662 22.5371 18.9154 22.6423 18.6532 22.6445C18.391 22.6468 18.1384 22.546 17.9498 22.3639L12.2928 16.7069Z" fill="white"/>
</svg>
