<svg width="62" height="57" viewBox="0 0 62 57" fill="none" xmlns="http://www.w3.org/2000/svg">
<circle cx="38" cy="24" r="24" fill="#D80621"/>
<path d="M44.4801 24.0001C43.6411 23.2968 42.5745 22.9235 41.4801 22.9501H34.4451C34.1243 22.9582 33.8052 22.9015 33.5069 22.7834C33.2086 22.6652 32.9372 22.4882 32.7089 22.2627C32.4806 22.0372 32.3002 21.768 32.1784 21.4711C32.0566 21.1743 31.9959 20.8559 32.0001 20.5351C31.9923 20.4102 31.9923 20.285 32.0001 20.1601C32.0947 19.5868 32.3953 19.0677 32.8455 18.7004C33.2957 18.3331 33.8645 18.1427 34.4451 18.1651H41.3751C41.9404 18.1646 42.4875 18.3649 42.9188 18.7303C43.3501 19.0957 43.6376 19.6024 43.7301 20.1601H45.9801C45.8859 19.0035 45.3599 17.9247 44.5067 17.1382C43.6535 16.3517 42.5355 15.915 41.3751 15.9151H39.0051V12.4651H37.1301V15.9151H34.4451C33.2847 15.915 32.1667 16.3517 31.3135 17.1382C30.4603 17.9247 29.9343 19.0035 29.8401 20.1601C29.8326 20.285 29.8326 20.4102 29.8401 20.5351C29.8401 21.1398 29.9592 21.7386 30.1906 22.2973C30.422 22.8561 30.7612 23.3637 31.1889 23.7913C32.0525 24.6549 33.2238 25.1401 34.4451 25.1401H41.5551C41.8733 25.1321 42.1899 25.1879 42.4862 25.3041C42.7825 25.4204 43.0526 25.5948 43.2805 25.8171C43.5083 26.0393 43.6894 26.305 43.813 26.5983C43.9366 26.8917 44.0002 27.2068 44.0001 27.5251C44.0157 27.6947 44.0157 27.8654 44.0001 28.0351C43.881 28.5629 43.586 29.0345 43.1635 29.3725C42.741 29.7105 42.2161 29.8947 41.6751 29.8951H34.6251C34.084 29.8947 33.5592 29.7105 33.1367 29.3725C32.7142 29.0345 32.4192 28.5629 32.3001 28.0351H30.0351C30.164 29.1621 30.703 30.2023 31.5495 30.9575C32.396 31.7127 33.4907 32.1301 34.6251 32.1301H37.1301V35.5351H39.0051V32.1301H41.5551C42.6895 32.1301 43.7842 31.7127 44.6307 30.9575C45.4771 30.2023 46.0162 29.1621 46.1451 28.0351V27.5251C46.1433 26.8513 45.9932 26.1863 45.7054 25.577C45.4177 24.9678 44.9993 24.4294 44.4801 24.0001Z" fill="white"/>
<g filter="url(#filter0_d_2378_451)">
<circle cx="14" cy="39" r="10" fill="white"/>
<circle cx="14" cy="39" r="9.5" stroke="#FED335"/>
</g>
<path fill-rule="evenodd" clip-rule="evenodd" d="M12 34.3333C12 33.9797 12.1405 33.6406 12.3905 33.3905C12.6406 33.1405 12.9797 33 13.3333 33H14.6667C15.0203 33 15.3594 33.1405 15.6095 33.3905C15.8595 33.6406 16 33.9797 16 34.3333V37H18.6667C19.0203 37 19.3594 37.1405 19.6095 37.3905C19.8595 37.6406 20 37.9797 20 38.3333V39.6667C20 40.0203 19.8595 40.3594 19.6095 40.6095C19.3594 40.8595 19.0203 41 18.6667 41H16V43.6667C16 44.0203 15.8595 44.3594 15.6095 44.6095C15.3594 44.8595 15.0203 45 14.6667 45H13.3333C12.9797 45 12.6406 44.8595 12.3905 44.6095C12.1405 44.3594 12 44.0203 12 43.6667V41H9.33333C8.97971 41 8.64057 40.8595 8.39052 40.6095C8.14048 40.3594 8 40.0203 8 39.6667V38.3333C8 37.9797 8.14048 37.6406 8.39052 37.3905C8.64057 37.1405 8.97971 37 9.33333 37H12V34.3333Z" fill="#FED335"/>
<defs>
<filter id="filter0_d_2378_451" x="0" y="29" width="28" height="28" filterUnits="userSpaceOnUse" color-interpolation-filters="sRGB">
<feFlood flood-opacity="0" result="BackgroundImageFix"/>
<feColorMatrix in="SourceAlpha" type="matrix" values="0 0 0 0 0 0 0 0 0 0 0 0 0 0 0 0 0 0 127 0" result="hardAlpha"/>
<feOffset dy="4"/>
<feGaussianBlur stdDeviation="2"/>
<feComposite in2="hardAlpha" operator="out"/>
<feColorMatrix type="matrix" values="0 0 0 0 0 0 0 0 0 0 0 0 0 0 0 0 0 0 0.25 0"/>
<feBlend mode="normal" in2="BackgroundImageFix" result="effect1_dropShadow_2378_451"/>
<feBlend mode="normal" in="SourceGraphic" in2="effect1_dropShadow_2378_451" result="shape"/>
</filter>
</defs>
</svg>
