<svg width="160" height="115" viewBox="0 0 160 115" fill="none" xmlns="http://www.w3.org/2000/svg">
<path d="M127.291 82.0382L61.4614 102.156C58.1699 103.171 54.6939 101.295 53.7095 98.0342L40.4513 54.599C39.4362 51.3076 41.3127 47.8315 44.5734 46.8472L110.403 26.7292C113.694 25.714 117.17 27.5905 118.155 30.8512L131.413 74.2864C132.428 77.5778 130.582 81.0539 127.291 82.0382Z" fill="#7F7F7F"/>
<path d="M101.082 43.8345L48.7571 40.9429C45.7425 40.7891 43.4354 38.2052 43.62 35.1905L45.2811 5.16737C45.4349 2.15275 48.0188 -0.154356 51.0335 -0.000548364L103.359 2.89103C106.373 3.04483 108.68 5.6288 108.496 8.64342L106.835 38.6666C106.681 41.6812 104.097 43.9883 101.082 43.8345Z" fill="#D80621"/>
<path d="M45.1942 6.87997L44.7451 15.0195L107.957 18.5068L108.406 10.3672L45.1942 6.87997Z" fill="#14011F"/>
<path d="M54.632 35.6815C57.4522 35.6815 59.7384 33.3953 59.7384 30.5751C59.7384 27.755 57.4522 25.4688 54.632 25.4688C51.8118 25.4688 49.5256 27.755 49.5256 30.5751C49.5256 33.3953 51.8118 35.6815 54.632 35.6815Z" fill="#FECA4A"/>
<path d="M62.1079 36.0839C64.928 36.0839 67.2143 33.7977 67.2143 30.9775C67.2143 28.1573 64.928 25.8711 62.1079 25.8711C59.2877 25.8711 57.0015 28.1573 57.0015 30.9775C57.0015 33.7977 59.2877 36.0839 62.1079 36.0839Z" fill="#E7406B"/>
<path d="M59.7334 30.8619C59.8401 28.9281 59.3078 27.3262 58.5444 27.2841C57.781 27.242 57.0757 28.7755 56.9691 30.7094C56.8624 32.6432 57.3947 34.2451 58.1581 34.2872C58.9214 34.3293 59.6267 32.7957 59.7334 30.8619Z" fill="#E7406B"/>
<path d="M64.9069 101.298C63.8303 101.298 62.7536 101.021 61.7692 100.498C60.2004 99.6675 59.0315 98.2525 58.5085 96.5606L45.2504 53.1255C44.7274 51.4336 44.912 49.6187 45.7425 48.0498C46.5731 46.481 47.9881 45.3121 49.68 44.7891C49.9261 44.7276 50.1722 44.8506 50.2645 45.0967C50.326 45.3428 50.2029 45.5889 49.9568 45.6812C48.4803 46.1426 47.2806 47.127 46.5423 48.4805C45.8348 49.834 45.681 51.4028 46.1117 52.8794L59.4006 96.2838C59.862 97.7603 60.8464 98.96 62.1999 99.6983C63.5534 100.406 65.1222 100.56 66.5988 100.129C66.8449 100.067 67.091 100.19 67.1833 100.437C67.2755 100.683 67.1217 100.929 66.8756 101.021C66.2296 101.175 65.5529 101.298 64.9069 101.298Z" fill="black"/>
<path d="M67.0297 81.3037L55.4327 84.8413L49.8033 86.5639C48.2345 87.0254 46.6041 86.164 46.1427 84.5952L41.6823 69.9528C41.2209 68.3839 42.0822 66.7536 43.651 66.2922L49.2804 64.5695L60.8774 61.032C66.476 59.3093 72.413 62.4777 74.1049 68.0763C75.766 73.6749 72.6283 79.5811 67.0297 81.3037Z" fill="#7F7F7F"/>
<path d="M49.8335 87.0235C49.6489 87.0235 49.4644 86.9004 49.4028 86.6851C49.3413 86.439 49.4644 86.1929 49.7104 86.1007L66.9061 80.8404C69.49 80.0406 71.6126 78.2873 72.9046 75.9186C74.1658 73.5192 74.4426 70.7815 73.6428 68.1975C72.843 65.6135 71.0896 63.491 68.721 62.199C66.3216 60.9378 63.5838 60.6609 60.9999 61.4607L43.8042 66.7209C43.5582 66.7825 43.3121 66.6594 43.2198 66.4133C43.1583 66.1672 43.2813 65.9212 43.5274 65.8289L60.723 60.5687C63.5531 59.7073 66.5369 59.9842 69.1517 61.3685C71.7664 62.7527 73.6736 65.0906 74.5349 67.8899C75.3962 70.7199 75.1194 73.7038 73.7351 76.3185C72.3509 78.9332 70.013 80.8405 67.2137 81.7018L50.0181 86.962C49.9258 87.0235 49.8642 87.0235 49.8335 87.0235Z" fill="black"/>
<path d="M63.2148 76.286C65.9161 76.286 68.1059 74.0962 68.1059 71.395C68.1059 68.6937 65.9161 66.5039 63.2148 66.5039C60.5135 66.5039 58.3237 68.6937 58.3237 71.395C58.3237 74.0962 60.5135 76.286 63.2148 76.286Z" fill="white"/>
<path d="M39.2824 100.65C39.0363 100.65 38.8209 100.434 38.8209 100.188C38.8209 94.2207 33.9606 89.3603 27.9929 89.3603C27.7468 89.3603 27.5315 89.145 27.5315 88.8989C27.5315 88.6528 27.7468 88.4375 27.9929 88.4375C34.4528 88.4375 39.7438 93.6977 39.7438 100.188C39.7438 100.434 39.5285 100.65 39.2824 100.65Z" fill="#FECA4A"/>
<path d="M27.9926 111.908C21.5327 111.908 16.2417 106.648 16.2417 100.157C16.2417 94.5895 20.1792 89.76 25.6239 88.6525C25.87 88.591 26.1161 88.7756 26.1776 89.0217C26.2392 89.2678 26.0546 89.5139 25.8085 89.5754C20.7944 90.5905 17.1645 95.0509 17.1645 100.157C17.1645 106.125 22.0248 110.985 27.9926 110.985C29.9613 110.985 31.8993 110.462 33.5604 109.447C33.7757 109.324 34.0526 109.386 34.2064 109.601C34.3294 109.816 34.2679 110.093 34.0526 110.247C32.2376 111.324 30.1459 111.908 27.9926 111.908Z" fill="#FECA4A"/>
<path d="M36.7904 107.695C36.6981 107.695 36.575 107.664 36.5135 107.602C36.3289 107.449 36.2982 107.141 36.452 106.956C37.1287 106.126 37.6517 105.203 38.0516 104.219C38.1439 103.973 38.4207 103.88 38.6668 103.973C38.9129 104.065 39.0052 104.342 38.9129 104.588C38.4822 105.664 37.8978 106.649 37.1595 107.541C37.0672 107.633 36.9442 107.695 36.7904 107.695Z" fill="#FECA4A"/>
<path d="M32.4523 101.386C32.2985 101.386 32.1755 101.324 32.0832 101.201L31.2527 100.032C31.0373 99.6937 30.9758 99.2938 31.0988 98.9247C31.1911 98.6786 31.468 98.5555 31.6833 98.6478C31.9294 98.7401 32.0525 99.017 31.9602 99.2323C31.9294 99.3246 31.9294 99.4169 31.9909 99.5091L32.8215 100.678C32.9753 100.893 32.9138 101.17 32.6984 101.324C32.6369 101.355 32.5446 101.386 32.4523 101.386Z" fill="#FECA4A"/>
<path d="M26.6388 106.771C26.5773 106.771 26.485 106.771 26.4235 106.741C25.962 106.648 25.6237 106.31 25.5006 105.879L24.6701 102.926C24.6393 102.834 24.5778 102.772 24.4855 102.742L21.5939 101.757C21.1633 101.603 20.8556 101.234 20.7941 100.773C20.7326 100.311 20.9479 99.8807 21.3171 99.6039L23.8703 97.912C23.9625 97.8505 23.9933 97.7582 23.9933 97.6659L24.0548 94.6205C24.0548 94.1591 24.3317 93.7592 24.7316 93.5439C25.1622 93.3593 25.6237 93.3901 25.9928 93.6977L28.3922 95.6049C28.4537 95.6664 28.5768 95.6664 28.6383 95.6664L31.5606 94.7744C31.9913 94.6513 32.4835 94.7744 32.7911 95.1127C33.0987 95.4511 33.191 95.9433 33.0372 96.3739L32.668 97.3891C32.5757 97.6352 32.2989 97.7582 32.0836 97.6659C31.8375 97.5736 31.7144 97.2968 31.8067 97.0815L32.1759 96.0663C32.2374 95.9125 32.1451 95.8202 32.1143 95.7587C32.0836 95.7279 31.9913 95.6357 31.8375 95.6972L28.9151 96.5893C28.546 96.7123 28.1153 96.62 27.8077 96.3739L25.4083 94.4667C25.2853 94.3745 25.1622 94.4052 25.1007 94.436C25.0392 94.4667 24.9469 94.5283 24.9469 94.6821L24.8854 97.7274C24.8854 98.1273 24.6701 98.4965 24.3317 98.7118L21.7785 100.404C21.6554 100.496 21.6554 100.619 21.6554 100.681C21.6554 100.742 21.6862 100.865 21.84 100.927L24.7316 101.911C25.1007 102.034 25.4083 102.342 25.5006 102.742L26.3312 105.695C26.3619 105.848 26.485 105.879 26.5465 105.91C26.608 105.91 26.7311 105.941 26.8234 105.787L28.669 103.357C28.9151 103.049 29.2843 102.865 29.6842 102.865L32.7296 102.988C32.8834 102.988 32.9756 102.895 33.0064 102.834C33.0372 102.772 33.0679 102.68 32.9756 102.526C32.8218 102.311 32.8834 102.034 33.0987 101.88C33.314 101.726 33.5909 101.788 33.7447 102.003C34.0215 102.372 34.0523 102.865 33.8062 103.265C33.5909 103.664 33.1602 103.91 32.6988 103.88L29.6534 103.757C29.5611 103.757 29.4688 103.787 29.4073 103.88L27.5616 106.31C27.3463 106.618 27.0079 106.771 26.6388 106.771Z" fill="#FECA4A"/>
<path d="M146.825 52.3496C146.671 52.3496 146.487 52.2573 146.425 52.1035C146.302 51.8881 146.394 51.6113 146.64 51.4882C148.486 50.5654 149.87 48.9658 150.516 46.9971C151.162 45.0283 151.009 42.9366 150.086 41.0601C149.963 40.8448 150.055 40.5679 150.301 40.4449C150.516 40.3218 150.793 40.4141 150.916 40.6602C151.962 42.7212 152.116 45.0899 151.408 47.2739C150.67 49.4888 149.132 51.2729 147.071 52.288C146.948 52.3188 146.887 52.3496 146.825 52.3496Z" fill="#FECA4A"/>
<path d="M138.734 51.9537C138.642 51.9537 138.55 51.9229 138.488 51.8922C137.165 51.0616 136.089 49.8619 135.381 48.4469C133.228 44.171 134.95 38.9416 139.257 36.7883C142.918 34.9426 147.44 35.9577 149.962 39.1569C150.116 39.3723 150.085 39.6491 149.901 39.8029C149.685 39.9567 149.408 39.926 149.255 39.7414C146.978 36.8498 142.948 35.9577 139.688 37.6189C137.842 38.5417 136.458 40.1413 135.812 42.11C135.166 44.0788 135.32 46.1705 136.242 48.047C136.888 49.3082 137.842 50.3848 139.042 51.1231C139.257 51.2462 139.319 51.5538 139.196 51.7691C139.042 51.8614 138.888 51.9537 138.734 51.9537Z" fill="#FECA4A"/>
<path d="M143.133 53.2152C142.518 53.2152 141.902 53.1537 141.287 53.0306C141.041 52.9691 140.887 52.723 140.949 52.4769C141.01 52.2309 141.256 52.077 141.503 52.1386C142.241 52.2924 143.01 52.3539 143.779 52.2924C144.025 52.2616 144.24 52.4462 144.271 52.723C144.302 52.9691 144.117 53.1845 143.84 53.2152C143.594 53.2152 143.379 53.2152 143.133 53.2152Z" fill="#FECA4A"/>
<path d="M144.087 48.1415C144.025 48.1415 143.933 48.1108 143.872 48.08C143.656 47.9569 143.564 47.6801 143.687 47.4648L144.179 46.5419C144.333 46.2651 144.641 46.0497 144.948 46.019C145.194 45.9882 145.44 46.1728 145.471 46.4189C145.502 46.665 145.317 46.9111 145.071 46.9418C145.04 46.9418 145.01 46.9726 145.01 46.9726L144.518 47.8954C144.425 48.0492 144.271 48.1415 144.087 48.1415Z" fill="#FECA4A"/>
<path d="M143.071 49.4633H143.041C142.641 49.4633 142.333 49.2172 142.148 48.8789L141.226 46.8486C141.226 46.8178 141.195 46.8178 141.164 46.7871L138.98 46.3872C138.611 46.3257 138.303 46.0488 138.18 45.6797C138.057 45.3105 138.18 44.9106 138.457 44.6645L140.118 43.1572C140.149 43.1265 140.149 43.1265 140.149 43.0957L139.841 40.8809C139.78 40.5117 139.964 40.1426 140.272 39.9273C140.58 39.712 141.01 39.712 141.318 39.8965L143.256 41.0039C143.287 41.0039 143.317 41.0039 143.317 41.0039L145.317 40.0503C145.655 39.8965 146.055 39.9273 146.363 40.1734C146.67 40.4195 146.793 40.7886 146.732 41.1577L146.271 43.3418C146.271 43.3726 146.271 43.4033 146.301 43.4033L147.839 45.0029C148.116 45.2798 148.178 45.6797 148.055 46.0488C147.932 46.4179 147.593 46.664 147.224 46.6948L146.455 46.7871C146.209 46.8178 145.963 46.6333 145.932 46.3872C145.901 46.1411 146.086 45.895 146.332 45.8642L147.101 45.772C147.101 45.772 147.163 45.772 147.163 45.7104C147.193 45.6489 147.163 45.6489 147.132 45.6182L145.594 44.0186C145.378 43.7725 145.255 43.4341 145.348 43.1265L145.809 40.9424C145.809 40.9424 145.809 40.8809 145.778 40.8501C145.748 40.8194 145.717 40.8501 145.686 40.8501L143.687 41.8037C143.379 41.9575 143.041 41.9268 142.764 41.773L140.826 40.6656C140.826 40.6656 140.795 40.6348 140.733 40.6656C140.703 40.6963 140.703 40.7271 140.703 40.7578L141.01 42.9727C141.041 43.311 140.949 43.6187 140.703 43.8647L139.042 45.3721C139.042 45.3721 139.011 45.4028 139.011 45.4643C139.011 45.5259 139.072 45.5259 139.072 45.5259L141.256 45.9258C141.595 45.9873 141.872 46.2026 141.995 46.5102L142.918 48.5405C142.918 48.5405 142.948 48.602 142.979 48.602C143.041 48.602 143.041 48.5712 143.041 48.5712C143.164 48.3559 143.44 48.2636 143.656 48.3867C143.871 48.5097 143.963 48.7866 143.84 49.0019C143.748 49.2788 143.44 49.4633 143.071 49.4633Z" fill="#FECA4A"/>
<path d="M37.2523 42.4191C37.2216 42.4191 37.1908 42.4191 37.1601 42.4191C36.914 42.3883 36.7294 42.1422 36.7909 41.8961C37.5907 37.528 34.6991 33.3444 30.331 32.5446C30.0849 32.5139 29.9004 32.2678 29.9619 32.0217C30.0234 31.7756 30.2387 31.591 30.4848 31.6525C35.3451 32.5446 38.5751 37.2204 37.683 42.0807C37.6522 42.2652 37.4677 42.4191 37.2523 42.4191Z" fill="#FECA4A"/>
<path d="M28.8853 49.3714C28.3316 49.3714 27.8087 49.3099 27.255 49.2176C22.3947 48.3255 19.1647 43.6498 20.0568 38.7895C20.8258 34.6059 24.4557 31.5298 28.67 31.4375C28.9161 31.4375 29.1314 31.6221 29.1314 31.8989C29.1314 32.1758 28.9469 32.3603 28.67 32.3603C24.8864 32.4526 21.6256 35.2212 20.9489 38.9433C20.1491 43.3114 23.0407 47.495 27.4088 48.2948C28.8546 48.5716 30.3311 48.4178 31.6846 47.8949C31.9307 47.8026 32.1768 47.9256 32.2691 48.1717C32.3614 48.4178 32.2383 48.6639 31.9922 48.7562C31.0386 49.1869 29.962 49.3714 28.8853 49.3714Z" fill="#FECA4A"/>
<path d="M34.4529 47.3083C34.3298 47.3083 34.2068 47.2468 34.1145 47.1545C33.9607 46.9699 33.9607 46.6623 34.176 46.5085C34.7605 45.9856 35.2834 45.4011 35.7141 44.7243C35.8371 44.509 36.1447 44.4475 36.3601 44.5705C36.5754 44.6936 36.6369 45.0012 36.5139 45.2165C36.0525 45.9548 35.468 46.6315 34.7912 47.216C34.6682 47.2775 34.5452 47.3083 34.4529 47.3083Z" fill="#FECA4A"/>
<path d="M32.0848 42.0485C31.9002 42.0485 31.7464 41.9562 31.6541 41.7717L31.1927 40.7873C31.0389 40.4797 31.0697 40.1106 31.2542 39.8337C31.3773 39.6184 31.6541 39.5569 31.9002 39.6799C32.1156 39.8029 32.1771 40.0798 32.054 40.3259C32.0233 40.3567 32.0233 40.3874 32.054 40.4182L32.5155 41.4025C32.6077 41.6486 32.5155 41.8947 32.3001 42.0178C32.2078 42.0178 32.1463 42.0485 32.0848 42.0485Z" fill="#FECA4A"/>
<path d="M27.1323 45.2802C27.0092 45.2802 26.8862 45.2494 26.7631 45.2187C26.394 45.0649 26.1479 44.7573 26.1171 44.3574L25.9018 42.0503C25.9018 42.0195 25.8711 41.9887 25.8403 41.958L23.8408 40.8198C23.5024 40.6352 23.2871 40.2661 23.3179 39.8662C23.3486 39.4663 23.5639 39.1279 23.9331 38.9741L26.0556 38.0513C26.0864 38.0513 26.1171 38.0205 26.1171 37.9897L26.5786 35.7442C26.6709 35.3443 26.9477 35.0674 27.3168 34.9444C27.686 34.8521 28.0859 34.9751 28.3627 35.252L29.87 36.9746C29.9008 37.0054 29.9316 37.0054 29.9623 37.0054L32.2387 36.7285C32.6386 36.6978 33.0077 36.8516 33.223 37.1899C33.4384 37.5283 33.4384 37.9282 33.2538 38.2666L32.8539 38.9741C32.7309 39.1894 32.454 39.251 32.2079 39.1279C31.9618 39.0049 31.9311 38.728 32.0541 38.4819L32.454 37.7744C32.4848 37.7437 32.4848 37.7129 32.454 37.6821C32.4232 37.6514 32.3925 37.6206 32.3617 37.6514L30.0854 37.9282C29.747 37.959 29.4086 37.8359 29.1933 37.5898L27.686 35.8672C27.6552 35.8364 27.6245 35.8364 27.5937 35.8364C27.5629 35.8364 27.5322 35.8672 27.5322 35.9287L27.0708 38.1743C27.0092 38.5127 26.7939 38.7895 26.4555 38.9126L24.333 39.8354C24.3022 39.8662 24.2715 39.8662 24.2715 39.9277C24.2715 39.9585 24.2715 39.9892 24.333 40.02L26.3325 41.1582C26.6401 41.312 26.8247 41.6196 26.8554 41.958L27.0708 44.2651C27.0708 44.2958 27.1015 44.3266 27.1323 44.3574C27.163 44.3574 27.1938 44.3574 27.2246 44.3266L28.9164 42.7578C29.1625 42.5424 29.5009 42.4502 29.8393 42.5117L32.0849 43.0346C32.1156 43.0346 32.1464 43.0346 32.1771 43.0039C32.2079 42.9731 32.2079 42.9423 32.1771 42.9116C32.0849 42.6655 32.1772 42.4194 32.3925 42.2963C32.6386 42.2041 32.8847 42.2963 33.0077 42.5117C33.1615 42.8808 33.1308 43.2807 32.8847 43.5883C32.6386 43.8959 32.2387 44.019 31.8695 43.9267L29.624 43.4038C29.5932 43.4038 29.5624 43.4038 29.5317 43.4345L27.8398 45.0034C27.6245 45.1572 27.3784 45.2802 27.1323 45.2802Z" fill="#FECA4A"/>
<path d="M2.67619 57.0927C2.52239 57.0927 2.36858 57.0004 2.2763 56.8466L1.35345 55.1547C1.23041 54.9394 1.32269 54.6625 1.53802 54.5395C1.75335 54.4164 2.0302 54.5087 2.15325 54.7241L3.07609 56.4159C3.19914 56.6313 3.10685 56.9081 2.89152 57.0312C2.83 57.0619 2.73772 57.0927 2.67619 57.0927Z" fill="black"/>
<path d="M4.79826 61.0302C4.64446 61.0302 4.49065 60.9379 4.39837 60.7841L3.47552 59.0922C3.35248 58.8769 3.44476 58.6 3.66009 58.477C3.87542 58.3539 4.15227 58.4462 4.27532 58.6616L5.19816 60.3534C5.32121 60.5688 5.22892 60.8456 5.01359 60.9687C4.95207 60.9994 4.89055 61.0302 4.79826 61.0302Z" fill="black"/>
<path d="M4.39984 57.6127C4.24603 57.6127 4.09222 57.5204 3.99994 57.3666C3.87689 57.1513 3.96918 56.8744 4.18451 56.7514L5.87638 55.8285C6.09171 55.7055 6.36857 55.7978 6.49161 56.0131C6.61466 56.2284 6.52237 56.5053 6.30704 56.6283L4.61517 57.5512C4.55364 57.582 4.46136 57.6127 4.39984 57.6127Z" fill="black"/>
<path d="M0.461359 59.7377C0.307551 59.7377 0.153744 59.6454 0.0614599 59.4916C-0.0615858 59.2763 0.0306985 58.9994 0.246029 58.8764L1.93791 57.9535C2.15324 57.8305 2.43009 57.9228 2.55314 58.1381C2.67618 58.3534 2.5839 58.6303 2.36857 58.7533L0.676689 59.6762C0.615166 59.707 0.522881 59.7377 0.461359 59.7377Z" fill="black"/>
<path d="M155.406 75.1786C155.252 75.1786 155.099 75.0863 155.006 74.9325L154.083 73.2407C153.96 73.0253 154.053 72.7485 154.268 72.6254C154.483 72.5024 154.76 72.5947 154.883 72.81L155.806 74.5019C155.929 74.7172 155.837 74.9941 155.622 75.1171C155.529 75.1786 155.468 75.1786 155.406 75.1786Z" fill="black"/>
<path d="M157.529 79.1161C157.375 79.1161 157.221 79.0238 157.129 78.87L156.206 77.1782C156.083 76.9628 156.175 76.686 156.391 76.5629C156.606 76.4399 156.883 76.5322 157.006 76.7475L157.929 78.4394C158.052 78.6547 157.959 78.9316 157.744 79.0546C157.683 79.0854 157.59 79.1161 157.529 79.1161Z" fill="black"/>
<path d="M157.098 75.7026C156.944 75.7026 156.79 75.6103 156.698 75.4565C156.575 75.2411 156.667 74.9643 156.883 74.8412L158.575 73.9184C158.79 73.7953 159.067 73.8876 159.19 74.103C159.313 74.3183 159.221 74.5951 159.005 74.7182L157.313 75.641C157.252 75.6718 157.19 75.7026 157.098 75.7026Z" fill="black"/>
<path d="M153.191 77.8237C153.038 77.8237 152.884 77.7314 152.791 77.5776C152.668 77.3622 152.761 77.0854 152.976 76.9623L154.668 76.0395C154.883 75.9164 155.16 76.0087 155.283 76.2241C155.406 76.4394 155.314 76.7162 155.099 76.8393L153.407 77.7621C153.314 77.7929 153.253 77.8237 153.191 77.8237Z" fill="black"/>
<path d="M116.371 110.804C116.217 110.804 116.063 110.711 115.971 110.558L115.048 108.866C114.925 108.65 115.017 108.373 115.233 108.25C115.448 108.127 115.725 108.22 115.848 108.435L116.771 110.127C116.894 110.342 116.801 110.619 116.586 110.742C116.525 110.773 116.463 110.804 116.371 110.804Z" fill="black"/>
<path d="M118.524 114.737C118.37 114.737 118.216 114.645 118.124 114.491L117.201 112.799C117.078 112.584 117.17 112.307 117.386 112.184C117.601 112.061 117.878 112.153 118.001 112.369L118.924 114.06C119.047 114.276 118.955 114.553 118.739 114.676C118.647 114.706 118.585 114.737 118.524 114.737Z" fill="black"/>
<path d="M118.094 111.324C117.94 111.324 117.786 111.231 117.694 111.078C117.571 110.862 117.663 110.585 117.878 110.462L119.57 109.539C119.786 109.416 120.062 109.509 120.185 109.724C120.309 109.939 120.216 110.216 120.001 110.339L118.309 111.262C118.247 111.293 118.186 111.324 118.094 111.324Z" fill="black"/>
<path d="M114.156 113.449C114.002 113.449 113.849 113.356 113.756 113.203C113.633 112.987 113.726 112.71 113.941 112.587L115.633 111.664C115.848 111.541 116.125 111.634 116.248 111.849C116.371 112.064 116.279 112.341 116.063 112.464L114.372 113.387C114.31 113.418 114.248 113.449 114.156 113.449Z" fill="black"/>
<path d="M127.383 21.0121C127.352 21.0121 127.29 21.0121 127.26 20.9813C127.014 20.9198 126.86 20.6737 126.952 20.4276L127.321 19.1356C127.414 18.7665 127.69 18.4896 128.06 18.3666C128.306 18.2743 128.552 18.3973 128.644 18.6434C128.736 18.8895 128.613 19.1356 128.367 19.2279C128.306 19.2587 128.244 19.3202 128.213 19.3817L127.844 20.6737C127.752 20.8583 127.567 21.0121 127.383 21.0121Z" fill="black"/>
<path d="M126.307 22.9501C125.938 22.9501 125.6 22.7963 125.384 22.4887L123.692 20.2431C123.662 20.1816 123.569 20.1508 123.508 20.1508L120.678 20.2739C120.247 20.2739 119.816 20.0585 119.632 19.6894C119.416 19.2895 119.447 18.8281 119.693 18.4897L121.324 16.1826C121.354 16.1211 121.385 16.0288 121.354 15.9673L120.37 13.3218C120.216 12.9219 120.309 12.4605 120.616 12.1221C120.924 11.8145 121.354 11.6914 121.785 11.8145L124.492 12.645C124.554 12.6758 124.646 12.645 124.707 12.6143L126.922 10.8609C127.261 10.584 127.722 10.5225 128.122 10.7071C128.522 10.8916 128.768 11.2915 128.768 11.7222L128.829 14.5522C128.829 14.6138 128.86 14.7061 128.922 14.7368L131.29 16.3056C131.66 16.5517 131.844 16.9824 131.783 17.4131C131.721 17.8437 131.444 18.2129 131.014 18.3667L130.06 18.705C129.814 18.7973 129.568 18.6743 129.475 18.4282C129.383 18.1821 129.506 17.936 129.752 17.8437L130.706 17.5053C130.829 17.4746 130.86 17.3515 130.86 17.3208C130.86 17.29 130.86 17.167 130.767 17.1054L128.399 15.5366C128.091 15.3213 127.876 14.9829 127.876 14.583L127.814 11.753C127.814 11.6299 127.722 11.5684 127.691 11.5376C127.661 11.5069 127.537 11.4761 127.445 11.5684L125.23 13.3218C124.923 13.5679 124.554 13.6294 124.184 13.5371L121.477 12.7066C121.354 12.6758 121.262 12.7373 121.231 12.7681C121.201 12.7988 121.139 12.8911 121.17 13.0142L122.154 15.6597C122.277 16.0288 122.247 16.3979 122.031 16.7363L120.401 19.0434C120.339 19.1357 120.37 19.2587 120.401 19.2895C120.432 19.3203 120.493 19.4125 120.616 19.4125L123.446 19.2895C123.846 19.2895 124.184 19.4433 124.431 19.7509L126.122 21.9965C126.215 22.0888 126.307 22.0888 126.338 22.0888C126.369 22.0888 126.492 22.058 126.522 21.935C126.584 21.6889 126.83 21.5351 127.076 21.6274C127.322 21.6889 127.476 21.935 127.384 22.1811C127.261 22.6117 126.922 22.9194 126.492 23.0116C126.461 22.9501 126.369 22.9501 126.307 22.9501Z" fill="black"/>
<path d="M29.5002 71.2123C29.3464 71.2123 29.2234 71.1507 29.1311 71.0277L28.2698 69.7972C28.0237 69.4589 27.9929 69.0282 28.116 68.6591C28.2082 68.413 28.4851 68.2899 28.7004 68.3822C28.9465 68.4745 29.0696 68.7513 28.9773 68.9667C28.9465 69.059 28.9465 69.182 29.008 69.2743L29.8694 70.5047C30.0232 70.7201 29.9616 70.9969 29.7463 71.1507C29.6848 71.1815 29.5925 71.2123 29.5002 71.2123Z" fill="black"/>
<path d="M23.4095 76.873C23.348 76.873 23.2557 76.873 23.1634 76.8422C22.702 76.7499 22.3328 76.4115 22.2098 75.9501L21.3485 72.874C21.3177 72.7817 21.2562 72.6894 21.1332 72.6586L18.1185 71.6128C17.6571 71.4589 17.3495 71.059 17.288 70.5976C17.2264 70.1362 17.4418 69.6748 17.8417 69.3979L20.5179 67.6138C20.6102 67.5522 20.6717 67.46 20.6717 67.3677L20.7333 64.1685C20.7333 63.7071 21.0101 63.2764 21.4408 63.0611C21.8714 62.8457 22.3636 62.9073 22.7327 63.2149L25.2244 65.2144C25.3167 65.2759 25.409 65.3067 25.5013 65.2759L28.5467 64.3223C29.0081 64.1685 29.5003 64.3223 29.8079 64.6607C30.1463 64.999 30.2385 65.4912 30.0847 65.9526L29.6848 66.9985C29.5925 67.2446 29.3465 67.3677 29.1004 67.2754C28.8543 67.1831 28.7312 66.9063 28.8235 66.6909L29.2234 65.645C29.2849 65.4912 29.1926 65.3682 29.1619 65.3067C29.1311 65.2759 29.0081 65.1529 28.8235 65.2144L25.7781 66.168C25.3782 66.291 24.9476 66.1987 24.64 65.9526L22.1175 63.9839C21.9637 63.8609 21.8407 63.9224 21.7791 63.9532C21.7176 63.9839 21.5946 64.0454 21.5946 64.23L21.533 67.4292C21.533 67.8291 21.3177 68.229 20.9793 68.4443L18.3031 70.2285C18.1493 70.3208 18.1493 70.4746 18.1493 70.5361C18.1493 70.5976 18.1801 70.7514 18.3646 70.7822L21.3792 71.8281C21.7791 71.9511 22.056 72.2587 22.179 72.6586L23.0404 75.7348C23.1019 75.9194 23.2249 75.9501 23.2864 75.9501C23.348 75.9501 23.5018 75.9809 23.5941 75.8271L25.5013 73.2739C25.7474 72.9355 26.1473 72.7509 26.5472 72.7817L29.8386 72.9047C30.0232 72.9047 30.1155 72.7817 30.1463 72.7509C30.177 72.7202 30.2385 72.5664 30.1155 72.4125C29.9617 72.1972 30.0232 71.9204 30.2385 71.7666C30.4539 71.6128 30.7307 71.6743 30.8845 71.8896C31.1614 72.2895 31.1921 72.7817 30.946 73.2123C30.7307 73.643 30.2693 73.8891 29.8079 73.8583L26.6087 73.7353C26.5164 73.7353 26.3934 73.7661 26.3318 73.8583L24.4246 76.4115C24.1785 76.6884 23.8094 76.873 23.4095 76.873Z" fill="black"/>
</svg>
