<svg width="24" height="20" viewBox="0 0 24 20" fill="none" xmlns="http://www.w3.org/2000/svg">
<g clip-path="url(#clip0_983_63216)">
<mask id="mask0_983_63216" style="mask-type:luminance" maskUnits="userSpaceOnUse" x="0" y="0" width="24" height="20">
<path d="M24 0H0V20H24V0Z" fill="white"/>
</mask>
<g mask="url(#mask0_983_63216)">
<mask id="mask1_983_63216" style="mask-type:luminance" maskUnits="userSpaceOnUse" x="-1" y="-1" width="26" height="22">
<path d="M24.3333 -0.316406H-0.00390625V20.306H24.3333V-0.316406Z" fill="white"/>
</mask>
<g mask="url(#mask1_983_63216)">
<path d="M23.829 3.62991L15.0119 0.0191137C14.9638 -0.00135327 14.9111 -0.00549782 14.8608 0.00723333C14.8105 0.0199645 14.7649 0.0489652 14.7303 0.0903557L11.9906 3.31495L9.27181 0.0903557C9.23718 0.0489652 9.19166 0.0199645 9.14134 0.00723333C9.09101 -0.00549782 9.03828 -0.00135327 8.9902 0.0191137L0.173161 3.62991C0.132563 3.6459 0.0964961 3.67295 0.0684697 3.70844C0.0404433 3.74392 0.021413 3.78662 0.0132304 3.83239C0.00349334 3.87833 0.00476755 3.92619 0.0169333 3.97146C0.0290991 4.01672 0.0517544 4.0579 0.0827643 4.0911L2.86416 7.09073L0.0827643 10.0904C0.0511421 10.1232 0.0278322 10.1642 0.0150527 10.2095C0.00227315 10.2548 0.000449253 10.3028 0.00975288 10.3491C0.0191827 10.3948 0.0390715 10.4373 0.0676103 10.4727C0.0961491 10.5081 0.132433 10.5352 0.173161 10.5515L2.95456 11.6764V16.3746C2.95507 16.4323 2.97202 16.4884 3.00312 16.5354C3.03422 16.5823 3.07795 16.6178 3.1284 16.637L11.9107 19.9816C11.9383 19.987 11.9665 19.987 11.9941 19.9816C12.0217 19.9873 12.05 19.9873 12.0775 19.9816L20.8702 16.637C20.9202 16.6169 20.9634 16.5812 20.9943 16.5344C21.0253 16.4877 21.0426 16.432 21.0441 16.3746V11.6839L23.8255 10.559C23.866 10.5422 23.9019 10.5147 23.9301 10.479C23.9582 10.4434 23.9777 10.4007 23.9866 10.3549C23.9956 10.3091 23.9938 10.2616 23.9815 10.2167C23.9691 10.1718 23.9466 10.131 23.9159 10.0979L21.1345 7.09823L23.9159 4.0986C23.9467 4.06519 23.9695 4.02413 23.9822 3.97903C23.9949 3.93394 23.9972 3.88616 23.9889 3.83989C23.9781 3.79477 23.9577 3.75298 23.9294 3.71784C23.901 3.68269 23.8654 3.65516 23.8255 3.63741L23.829 3.62991ZM0.736392 4.00487L9.00758 0.630288L11.5526 3.62991L3.29528 6.76077L0.736392 4.00487ZM11.7299 4.14735V10.0266L5.49606 7.66066L4.01149 7.09823L11.7299 4.14735ZM2.95803 11.084L0.725962 10.1691L2.95803 7.76565L3.28485 7.39069L3.47955 7.46568L11.5456 10.5403L9.00063 13.5399L3.47259 11.2977L2.95803 11.084ZM11.7299 19.3329L3.47259 16.1833V11.8976L8.97281 14.1473C9.00356 14.1563 9.03594 14.1563 9.06668 14.1473C9.10255 14.1471 9.138 14.139 9.17088 14.1236C9.20375 14.1081 9.23336 14.0856 9.25791 14.0574L11.7229 11.1365L11.7299 19.3329ZM12.2514 4.14735L19.9872 7.09823L12.2514 10.0454V4.14735ZM20.5261 16.1983L12.2514 19.3329V11.1627L14.7095 14.0686C14.7337 14.0985 14.7636 14.1224 14.7972 14.1386C14.8308 14.1548 14.8673 14.1629 14.9041 14.1623C14.9341 14.168 14.9646 14.168 14.9945 14.1623L20.5156 11.9126L20.5261 16.1983ZM23.2588 10.1991L21.0476 11.1065L20.5261 11.3202L14.9876 13.5924L12.4461 10.5928L20.6999 7.44319L21.0476 7.81814L23.2588 10.1991ZM20.7103 6.78702L12.453 3.64866L14.9911 0.649035L23.2692 4.02361L20.7103 6.78702Z" fill="#D80621"/>
</g>
<path d="M7.69845 16.5545C7.65468 16.533 7.60629 16.5247 7.5585 16.5307C7.51071 16.5366 7.46533 16.5565 7.42726 16.5883C7.38931 16.6214 7.3605 16.6652 7.34395 16.7147C7.32741 16.7643 7.32375 16.8178 7.33339 16.8695C7.34521 16.9196 7.36913 16.9654 7.40272 17.0023C7.43631 17.0392 7.47837 17.0658 7.52461 17.0794L10.9284 18.3843C10.9571 18.39 10.9866 18.39 11.0153 18.3843C11.069 18.384 11.1213 18.3657 11.1648 18.3318C11.1989 18.306 11.2268 18.2718 11.2462 18.232C11.2656 18.1922 11.2758 18.148 11.276 18.1031V15.2384C11.276 15.1638 11.2486 15.0923 11.1997 15.0396C11.1508 14.9868 11.0844 14.9572 11.0153 14.9572C10.9461 14.9572 10.8798 14.9868 10.8309 15.0396C10.782 15.0923 10.7545 15.1638 10.7545 15.2384V17.7206L7.97311 16.6557L7.69845 16.5545ZM16.4668 6.49827L13.0353 5.23093C12.9959 5.2159 12.9537 5.21131 12.9123 5.21755C12.8709 5.22378 12.8315 5.24066 12.7974 5.26676C12.7633 5.29286 12.7355 5.32741 12.7164 5.36751C12.6973 5.4076 12.6874 5.45206 12.6876 5.49714V7.60813C12.6876 7.68271 12.7151 7.75424 12.764 7.80698C12.8129 7.85972 12.8792 7.88935 12.9484 7.88935C13.0175 7.88935 13.0838 7.85972 13.1327 7.80698C13.1816 7.75424 13.2091 7.68271 13.2091 7.60813V5.89085L15.9001 6.88072L16.2999 7.0307C16.3654 7.05507 16.4372 7.05038 16.4994 7.01769C16.5617 6.98499 16.6094 6.92695 16.632 6.85635C16.6546 6.78574 16.6502 6.70835 16.6199 6.6412C16.5896 6.57405 16.5358 6.52263 16.4703 6.49827H16.4668Z" fill="#D80621"/>
</g>
</g>
<defs>
<clipPath id="clip0_983_63216">
<rect width="24" height="20" fill="white"/>
</clipPath>
</defs>
</svg>
