<svg width="59" height="71" viewBox="0 0 59 71" fill="none" xmlns="http://www.w3.org/2000/svg">
<path d="M58.0331 24.521C55.6957 33.3069 54.0046 43.1202 49.9659 51.1366C47.5387 55.9534 42.3306 59.8718 38.2702 63.3946C35.2895 65.9812 32.2406 68.4968 29.109 70.8994C22.0316 65.5102 13.5791 59.5458 8.64053 52.0438C8.4362 51.7264 8.25651 51.4235 8.11595 51.1366C4.11789 43.0072 2.38332 33.3011 0.0488197 24.521C-0.158401 21.6866 0.324149 18.7782 0.928424 16.0148C19.7218 15.3903 38.5209 15.3903 57.3143 16.0206C57.8374 18.7971 58.2461 21.6938 58.0345 24.521H58.0331Z" fill="#8D001A"/>
<path style="mix-blend-mode:multiply" opacity="0.5" d="M58.0333 24.5209C55.6959 33.3068 53.9396 42.9259 49.9662 51.1365C49.8618 45.0561 51.9587 38.4308 53.2585 32.546C54.483 27.0076 55.8292 21.4952 57.3131 16.0205C57.8362 18.797 58.2449 21.6937 58.0333 24.5209Z" fill="url(#paint0_linear_2376_1567)"/>
<path style="mix-blend-mode:multiply" opacity="0.5" d="M29.1091 70.898C28.8178 70.7691 28.5729 63.4758 30.3408 61.3398C32.6333 58.5706 37.0907 56.4505 40.4831 54.4711C41.9829 53.5958 49.4936 49.6484 49.8573 50.7541C50.1819 51.7395 47.0779 55.1739 45.8288 56.4679C43.5957 58.7821 40.8816 61.0746 38.4804 63.212C35.1388 66.1841 29.1091 70.8995 29.1091 70.8995V70.898Z" fill="url(#paint1_linear_2376_1567)"/>
<g style="mix-blend-mode:soft-light" opacity="0.5">
<path d="M8.64053 52.0439C8.4362 51.7266 8.25652 51.4237 8.11595 51.1368C4.11789 43.0073 2.38332 33.3013 0.0488197 24.5212C-0.158401 21.6867 0.32415 18.7784 0.928424 16.015C1.92685 15.9802 2.42534 15.9643 3.42232 15.9324C4.83954 27.8932 5.60032 40.3613 8.64198 52.0439H8.64053Z" fill="white"/>
</g>
<path d="M51.6731 17.7453C49.7531 16.0412 47.7779 14.4848 45.6724 13.0169C45.671 13.0169 45.6695 13.0155 45.668 13.014C40.9541 9.98829 35.9605 7.54656 30.5771 5.9627H30.5757C30.1062 5.82503 29.6859 5.70911 29.3193 5.61491C29.2396 5.59463 29.2005 5.58303 29.1208 5.56274C29.0425 5.58303 29.0034 5.59463 28.9237 5.61491C20.6001 7.78132 12.9764 12.046 6.56412 17.741C6.46124 17.8352 6.41052 17.883 6.30908 17.9772C6.32647 18.1177 6.33661 18.1887 6.354 18.3293C6.39748 18.6727 6.4453 19.0408 6.49747 19.4292C6.93219 22.6954 7.41909 25.982 7.97844 29.2193C8.99861 35.1244 9.85648 42.1322 12.93 47.4736C12.9358 47.4823 12.9387 47.4881 12.9445 47.4968C12.9503 47.5055 12.9532 47.5098 12.9604 47.5185C15.2819 50.4732 18.8728 52.6512 21.8912 54.7539C22.9897 55.519 24.091 56.2537 25.1111 56.9261C26.3269 57.7289 27.5543 58.5201 28.7889 59.2939C28.9179 59.375 28.9831 59.4156 29.1121 59.4968C29.2411 59.4156 29.3063 59.375 29.4353 59.2939C29.4845 59.2635 29.5352 59.2301 29.586 59.1982C31.8379 57.7564 34.1332 56.2769 36.3344 54.7524C39.3587 52.6585 42.9452 50.479 45.2667 47.5156C45.2725 47.5069 45.2753 47.5026 45.2826 47.4939C45.2884 47.4852 45.2913 47.4794 45.2971 47.4707C48.3706 42.125 49.2299 35.1287 50.2545 29.2193C50.7515 26.3501 51.1964 23.4446 51.5905 20.5464C51.7021 19.7291 51.8006 18.9843 51.8847 18.3293C51.9035 18.1887 51.9122 18.1177 51.9311 17.9772C51.8296 17.883 51.7775 17.8352 51.676 17.741L51.6731 17.7453ZM47.478 28.8686C46.5621 34.4143 45.7869 40.8135 43.106 45.8999C40.8165 48.4474 37.7299 50.4051 34.9534 52.315C33.0435 53.6279 31.0829 54.9147 29.1106 56.1609C27.1399 54.9147 25.1792 53.6294 23.2708 52.315C20.4943 50.4051 17.4266 48.4343 15.1196 45.8999C12.4344 40.8019 11.6707 34.4273 10.7535 28.8657C10.226 25.6617 9.76518 22.4172 9.37393 19.1785C15.1573 14.3037 21.8115 10.6042 29.1193 8.57977C36.4257 10.6056 43.0785 14.3066 48.8604 19.1814C48.4619 22.4187 48.0055 25.6646 47.4765 28.8672L47.478 28.8686Z" fill="#8D001A"/>
<path d="M48.862 19.1826C48.4635 22.4199 48.007 25.6659 47.4781 28.8684C46.5623 34.4141 45.787 40.8133 43.1062 45.8997C40.9861 49.0384 37.9735 51.47 34.939 53.5915C33.0552 54.9087 31.0786 56.1926 29.1122 57.4389C27.1458 56.1926 25.1707 54.9102 23.2868 53.593C20.251 51.4686 17.2455 49.0399 15.1212 45.9011C12.7026 41.3017 11.9578 35.643 11.0521 30.6218H11.0506C10.9536 30.0552 10.8536 29.4698 10.755 28.867C10.2348 25.6543 9.76675 22.4185 9.37549 19.1797C10.5029 18.1755 11.71 17.2032 12.9374 16.3439C17.2006 13.3616 21.9015 10.9025 26.8821 9.26212C27.7327 8.98244 28.4891 8.75493 29.1195 8.57959C31.5597 9.26501 33.9348 10.1519 36.2331 11.1561C40.8122 13.1573 45.0132 15.9294 48.8605 19.1812L48.862 19.1826Z" fill="url(#paint2_radial_2376_1567)"/>
<path style="mix-blend-mode:multiply" opacity="0.5" d="M51.1599 18.2786C50.2383 18.6379 49.7775 18.8191 48.8617 19.1828C43.0798 14.308 36.427 10.6056 29.1206 8.58118C29.1206 7.6755 29.1206 7.22338 29.1206 6.31769C29.7017 6.17568 29.993 6.10467 30.5755 5.96411H30.577C35.9604 7.54798 40.9525 9.98971 45.6679 13.0154C45.6693 13.0154 45.6708 13.0169 45.6722 13.0183C47.5126 14.7601 49.3428 16.5135 51.1599 18.2786Z" fill="url(#paint3_linear_2376_1567)"/>
<path d="M51.5892 20.5491C51.1965 23.4487 50.7502 26.3527 50.2532 29.2219C49.2287 35.1313 48.3693 42.1276 45.2958 47.4733C45.29 47.482 45.2871 47.4878 45.2813 47.4965C45.2755 47.5052 45.2726 47.5095 45.2654 47.5182C42.9439 50.4816 39.3574 52.6596 36.3331 54.755C34.132 56.2795 31.8656 57.7648 29.5847 59.2009C29.3948 58.9879 29.3007 58.8806 29.1094 58.6662C29.1094 58.1764 29.1094 57.9315 29.1094 57.4402C31.0758 56.194 33.0524 54.9101 34.9362 53.5929C37.9706 51.4699 40.9833 49.0383 43.1033 45.8996C45.7842 40.8118 46.5594 34.4126 47.4753 28.8683C48.0042 25.6658 48.4606 22.4198 48.8591 19.1826C49.775 18.8188 50.2358 18.6377 51.1574 18.2783C51.3299 19.1869 51.4153 19.6419 51.5863 20.5505L51.5892 20.5491Z" fill="#D44720"/>
<path d="M57.2967 16.0021C56.8388 15.5123 56.3389 15.0312 55.8491 14.5646C55.7824 14.5008 55.7128 14.437 55.6404 14.3704C53.3986 12.2967 50.9091 10.4752 48.3833 8.76237C48.3833 8.76237 47.5428 8.56964 46.2865 7.76829C45.0692 6.99157 44.6606 6.5438 44.6374 6.51772C44.6374 6.51772 44.6374 6.51772 44.6359 6.51772C40.0872 4.10787 35.3472 2.02841 30.413 0.667702C30.3754 0.657558 30.3362 0.645965 30.2957 0.635822C29.7349 0.485115 29.3523 0.38368 29.2001 0.347452C29.1842 0.344554 29.1697 0.340206 29.1538 0.337308C29.1436 0.334409 29.1335 0.331511 29.1233 0.328613C29.1233 0.328613 29.119 0.330065 29.1117 0.331514C29.1045 0.332963 29.09 0.335861 29.0741 0.340209C18.9463 2.83411 8.79393 8.06825 1.4499 15.4804C1.27456 15.6572 1.10067 15.8354 0.928223 16.018C0.934019 16.0629 0.936916 16.0861 0.942712 16.131C0.977491 16.4151 1.08473 17.2222 1.25427 18.4119C1.25572 18.4221 1.25717 18.4279 1.25862 18.438C2.0078 23.6606 2.87871 28.8744 3.96408 34.0376C5.09003 39.3876 6.17396 45.4463 9.04752 50.0588C11.4588 53.9308 16.48 56.8275 20.1969 59.42C23.1168 61.456 26.086 63.4267 29.1103 65.3048C32.136 63.4267 35.1052 61.4545 38.0266 59.4185C41.7377 56.8304 46.7734 53.9163 49.1789 50.0573C52.0553 45.442 53.145 39.3949 54.2695 34.039C55.3535 28.8759 56.2316 23.6649 56.9837 18.4438C56.9852 18.4337 56.9866 18.4279 56.9881 18.4177C57.159 17.228 57.2648 16.4223 57.3011 16.1383C57.3069 16.0934 57.3098 16.0702 57.3156 16.0253C57.3156 16.0253 57.3098 16.0195 57.2996 16.0079L57.2967 16.0021ZM49.5614 29.1324C48.5673 34.9389 47.7529 41.8496 44.7359 47.1055C42.4101 49.9617 38.9598 52.0919 35.9906 54.1438C33.746 55.6958 31.4361 57.2043 29.1117 58.665C26.7859 57.2101 24.479 55.6958 22.2358 54.1453C19.2897 52.1078 15.8018 49.9559 13.4919 47.107C10.4749 41.8554 9.66339 34.9345 8.6722 29.1309C8.05924 25.5415 7.53176 21.9042 7.0782 18.2743C13.3977 12.6691 20.9229 8.45371 29.1219 6.31629C37.3209 8.46965 44.8374 12.6662 51.1612 18.2772C50.7048 21.9071 50.1758 25.5429 49.5614 29.1324Z" fill="url(#paint4_linear_2376_1567)"/>
<path d="M1.3457 29.6609C1.3457 29.6609 2.7267 28.9538 2.89334 28.9219C3.72512 28.7654 8.41586 29.0074 8.6709 29.1306C9.42008 29.4928 11.1967 31.439 11.1967 31.439C11.1967 31.439 28.0381 29.6464 29.1206 29.6508C29.9524 29.6551 45.2563 31.6389 47.0648 31.4303C47.0648 31.4303 47.7038 31.4984 49.3949 30.0841C49.7007 29.829 55.016 30.4058 55.016 30.4058L56.2492 31.6216L55.8347 33.2996C55.8347 33.2996 55.384 31.2361 54.9116 30.8333C54.3537 30.3594 50.6948 29.858 49.4732 30.4058C49.0384 30.5999 46.9126 32.3693 46.9126 32.3693C46.9126 32.3693 34.149 30.2072 29.109 30.0841C23.1967 29.9377 13.5051 32.0693 11.3793 32.4896C11.3793 32.4896 9.48384 30.071 8.64047 29.5725C7.44351 28.8668 2.99333 29.1175 2.99333 29.1175L1.44859 30.0841L1.3457 29.6609Z" fill="#73081C"/>
<path d="M50.228 50.525C50.228 50.525 50.7816 50.2033 49.5078 49.7686C48.2355 49.3338 43.8259 48.4919 43.1101 48.3354C42.3956 48.1789 39.0062 50.0627 39.0062 50.0627C39.0062 50.0627 29.6682 49.0469 29.0422 49.0904C28.109 49.1556 20.1955 50.7105 19.3463 50.5598L15.1627 48.731L9.24172 50.4438L8.47949 51.6089L8.63889 52.0451C8.63889 52.0451 9.07073 50.7699 9.37359 50.5569C10.159 50.0048 15.3743 49.2092 15.3743 49.2092L20.1636 51.251C20.1636 51.251 26.7816 49.4802 29.1451 49.4802C29.9305 49.4802 35.3067 50.0366 38.8468 50.5235C38.8468 50.5235 42.4217 48.6499 43.41 48.8585C44.3983 49.0672 49.2847 50.3033 49.2847 50.3033L49.9643 51.1394L50.2266 50.5293L50.228 50.525Z" fill="#73081C"/>
<path d="M5.59717 11.7501C5.59717 11.7501 14.6685 12.2949 15.1366 12.3993C15.6046 12.5036 16.6205 13.9223 16.6205 13.9223C16.6205 13.9223 26.9554 13.0064 29.1204 13.1064C31.2839 13.2064 42.1623 14.2483 42.1623 14.2483C42.1623 14.2483 43.9273 13.2499 44.5026 13.2282C45.0779 13.2064 53.5681 12.5746 53.5681 12.5746L53.145 12.2181C53.145 12.2181 45.7546 12.6862 43.8287 12.8427C43.8287 12.8427 42.3188 13.8817 41.6435 13.8049C40.9668 13.7281 29.7986 12.1674 29.1117 12.1674C27.6901 12.1674 18.1609 13.4673 17.3638 13.4948C17.3638 13.4948 16.064 11.9689 15.2163 11.9834C14.37 11.9993 5.95944 11.4646 5.95944 11.4646L5.59717 11.7515V11.7501Z" fill="#73081C"/>
<g style="mix-blend-mode:soft-light" opacity="0.5">
<path d="M2.99315 29.119C5.07985 29.6001 8.35626 29.4436 8.35626 29.4436C8.35626 29.4436 7.02889 29.0813 5.31171 29.0798C3.59453 29.0798 2.9917 29.1175 2.9917 29.1175L2.99315 29.119Z" fill="#FFFFC5"/>
</g>
<g style="mix-blend-mode:soft-light" opacity="0.5">
<path d="M20.1636 51.2496C26.2353 50.1845 28.0191 49.7194 29.1436 49.7701C30.2681 49.8208 38.8468 50.5236 38.8468 50.5236C38.8468 50.5236 31.8578 49.4469 29.1451 49.4803C26.4324 49.5136 20.1636 51.2511 20.1636 51.2511V51.2496Z" fill="#FFFFC5"/>
</g>
<g style="mix-blend-mode:multiply" opacity="0.3">
<path d="M23.217 13.3889C37.8935 15.9118 46.023 23.876 46.0172 26.0613C46.0128 28.2465 20.9434 30.4216 20.9434 30.4216L11.1953 31.4403C11.1953 31.4403 39.6092 26.7974 40.6656 24.8904C44.7318 17.5522 22.1302 14.4743 17.9612 13.8063L23.2156 13.3904L23.217 13.3889Z" fill="#C00053"/>
</g>
<g style="mix-blend-mode:multiply" opacity="0.3">
<path d="M40.9005 31.4216C27.205 34.4936 28.602 42.3057 42.8133 46.2024L48.8618 49.5802L46.0187 48.931C46.0187 48.931 44.7333 48.3267 42.4162 46.8574C42.4162 46.8574 16.8411 41.8348 15.8803 35.5066C14.9181 29.1784 38.4051 31.0607 38.4051 31.0607L40.9019 31.4216H40.9005Z" fill="#C00053"/>
</g>
<g style="mix-blend-mode:multiply" opacity="0.3">
<path d="M37.3313 49.8832C25.1691 45.3432 2.99349 36.466 15.9383 31.5854L13.9211 31.9753C13.9211 31.9753 9.22607 33.704 13.6835 39.0947C18.1409 44.4853 27.8383 49.2703 27.8383 49.2703L29.0425 49.092L37.3299 49.8847L37.3313 49.8832Z" fill="#C00053"/>
</g>
<g style="mix-blend-mode:multiply" opacity="0.3">
<path d="M12.2096 12.1675C12.7907 12.7022 13.4066 16.0206 13.4066 16.0206C14.6818 16.5365 35.6285 20.5012 33.749 23.0169C31.4739 26.0614 11.1981 31.4405 11.1981 31.4405L8.67236 29.1321C8.67236 29.1321 20.8955 27.1555 21.2708 23.3299C21.6461 19.5043 12.5458 16.6235 12.5458 16.6235L12.1502 14.2469L11.1981 12.1675H12.2111H12.2096Z" fill="#C00053"/>
</g>
<g style="mix-blend-mode:multiply" opacity="0.3">
<path d="M13.7412 49.4788C16.2945 55.6751 27.7743 62.6438 32.6128 63.3771L34.5763 66.5173L35.0575 66.1217L36.6138 60.3905C36.6138 60.3905 24.5471 61.9729 17.5074 53.9058C14.3455 50.283 15.3743 49.2092 15.3743 49.2092L13.7412 49.4802V49.4788Z" fill="#C00053"/>
</g>
<g style="mix-blend-mode:multiply" opacity="0.3">
<path d="M45.0507 57.4402L43.1683 59.1893C43.1683 59.1893 30.8278 60.0979 21.8955 50.8077L23.7692 50.3643C23.7692 50.3643 24.7676 55.3071 32.9217 57.4402C41.0743 59.5747 45.0507 57.4402 45.0507 57.4402Z" fill="#C00053"/>
</g>
<g style="mix-blend-mode:soft-light" opacity="0.5">
<path d="M16.6206 13.9209C16.6206 13.9209 23.7081 13.7239 29.0249 13.8021C34.3416 13.8818 42.161 14.2455 42.161 14.2455C42.161 14.2455 33.5779 13.3036 29.1191 13.1036C24.6602 12.9051 16.6191 13.9195 16.6191 13.9195L16.6206 13.9209Z" fill="#FFFFC5"/>
</g>
<path style="mix-blend-mode:screen" opacity="0.5" d="M1.55159 16.0454C1.04295 17.7756 2.12978 23.3271 2.6587 23.33C3.15284 23.3329 5.59892 22.4968 6.92629 21.8186C7.2364 21.6607 6.6756 18.6379 7.077 18.2741C14.5775 11.4619 22.4461 8.56807 28.5802 5.96114C29.8728 5.41193 29.6366 0.735689 29.0337 0.651641C26.7297 0.327043 17.4714 4.10774 12.5198 7.12187C8.80143 9.38536 2.16455 13.9602 1.55159 16.044V16.0454Z" fill="url(#paint5_radial_2376_1567)"/>
<g style="mix-blend-mode:multiply" opacity="0.3">
<path d="M48.8618 19.1826C48.4633 22.4199 48.0068 25.6659 47.4779 28.8684C46.5621 34.4141 45.7868 40.8133 43.106 45.8997C40.9859 49.0384 37.9733 51.47 34.9388 53.593C33.055 54.9102 31.0784 56.1941 29.112 57.4403C29.154 49.3036 29.1888 41.164 29.1164 33.0288C29.0439 24.8863 28.8831 16.7221 29.1207 8.57959C36.4271 10.6054 43.0799 14.3064 48.8618 19.1812V19.1826Z" fill="#BE2F55"/>
</g>
<path style="mix-blend-mode:multiply" opacity="0.5" d="M48.862 19.1826C48.4635 22.4199 48.007 25.6658 47.4781 28.8683C46.5623 34.414 45.787 40.8133 43.1062 45.8996C40.9861 49.0383 37.9735 51.4699 34.939 53.5914C33.0552 54.9086 31.0786 56.1925 29.1122 57.4388C27.1458 56.1925 25.1707 54.9101 23.2868 53.5929C20.251 51.4685 17.2455 49.0398 15.1212 45.901C12.7026 41.3016 11.9578 35.6429 11.0521 30.6218H11.0506C10.9536 30.0552 10.8536 29.4697 10.755 28.8669C10.2348 25.6542 9.76675 22.4184 9.37549 19.1797C10.5029 18.1754 11.7071 17.219 12.9374 16.3438C12.962 16.3322 12.9736 16.3264 12.9968 16.3133C11.8129 17.2263 10.7318 18.3522 10.3261 19.5579C9.41606 22.2619 12.7896 37.1355 13.504 40.3467C14.4633 44.6563 25.2634 38.0527 28.8224 37.8629C32.3046 37.6774 41.7527 43.9824 43.5235 40.7336C48.0186 32.4809 45.7203 17.0538 36.2171 11.156C36.2171 11.156 36.2229 11.156 36.2331 11.156C40.8369 13.2195 45.0132 15.9293 48.8605 19.1811L48.862 19.1826Z" fill="url(#paint6_linear_2376_1567)"/>
<path style="mix-blend-mode:multiply" opacity="0.5" d="M7.20902 19.226C8.07848 19.9128 9.58264 20.8287 9.58264 20.8287C11.8954 16.0916 17.8164 13.8817 22.484 12.8441C27.8398 11.653 34.0115 14.5947 38.6458 17.1929C41.7874 18.9535 46.1014 21.2228 48.1794 24.3094C49.1372 23.6052 49.6183 23.2545 50.5863 22.556C50.8109 20.8446 50.9254 19.9896 51.1602 18.2797C40.1398 8.59393 29.1208 6.31885 29.1208 6.31885C29.1208 6.31885 16.347 9.58802 7.07715 18.2768C7.12932 18.6579 7.15685 18.8478 7.20902 19.2289V19.226Z" fill="url(#paint7_linear_2376_1567)"/>
<path style="mix-blend-mode:multiply" opacity="0.5" d="M55.493 22.8503C54.6033 22.3953 51.3095 22.6431 50.8139 23.9139C50.5125 24.6863 49.7445 29.151 49.2286 31.9956C48.2273 37.5297 45.245 44.4737 44.6248 48.6095C44.4538 49.7514 47.9027 50.6034 48.6388 50.1846C51.2052 48.7225 52.6992 40.6177 53.5556 36.4936C54.2772 33.0215 55.1366 29.5263 55.6336 26.0064C55.7756 24.9993 56.0654 23.143 55.4916 22.8503H55.493Z" fill="url(#paint8_linear_2376_1567)"/>
<path style="mix-blend-mode:multiply" opacity="0.5" d="M7.07726 22.6575C6.68746 22.3576 3.06326 23.2415 2.65606 23.9429C2.21988 24.695 3.26323 30.1668 3.83853 32.9244C4.97752 38.3832 6.2107 44.8664 8.82922 48.9543C9.86098 50.5643 12.9418 48.095 12.5012 46.6112C11.7144 43.9651 10.1725 38.9048 9.37409 33.9895C8.84516 30.7276 7.77573 23.1952 7.07581 22.659L7.07726 22.6575Z" fill="url(#paint9_linear_2376_1567)"/>
<g style="mix-blend-mode:soft-light" opacity="0.5">
<path d="M29.7991 69.7387C29.4528 69.8025 29.4079 65.7667 29.5745 65.5421C31.2497 63.2946 35.1695 62.3353 33.2146 66.655C32.6365 67.9331 31.0323 69.5098 29.7991 69.7387Z" fill="#C6A8FF"/>
</g>
<g style="mix-blend-mode:soft-light" opacity="0.5">
<path d="M45.4984 53.8116C46.9779 52.4653 43.061 49.4686 42.5393 49.7932C41.7408 50.2888 29.3989 58.6472 29.1192 59.0167C28.4961 59.8398 29.0453 64.6378 29.3134 64.6827C29.9336 64.7856 42.5784 56.4678 45.4984 53.8116Z" fill="#FFFFC5"/>
</g>
<g style="mix-blend-mode:soft-light" opacity="0.5">
<path d="M22.0464 8.57951C22.9028 8.20419 22.2522 2.55706 21.3219 2.88455C13.7185 5.56249 5.93969 11.5618 5.95853 11.8182C5.98461 12.1733 10.5898 14.4817 12.5085 13.6035C13.9155 12.9587 18.3251 10.2112 22.0464 8.57806V8.57951Z" fill="white"/>
</g>
<path style="mix-blend-mode:multiply" opacity="0.5" d="M57.3126 16.0209C57.3068 16.0658 57.3039 16.089 57.2981 16.1339C57.1721 17.0454 57.1083 17.5019 56.9851 18.4133C56.9837 18.4235 56.9822 18.4293 56.9808 18.4394C54.955 14.5747 51.3568 11.662 47.9413 9.1507C46.9472 8.4189 45.8764 7.70305 44.8069 7.04661C40.3176 4.28897 34.8458 1.50815 29.5566 0.919815C25.6122 0.482187 17.5639 4.69037 12.9036 7.60161C9.13156 9.95784 2.49903 13.7255 1.25715 18.4351C1.2557 18.4249 1.25425 18.4191 1.25281 18.409C1.12963 17.4961 1.06732 17.041 0.94125 16.1281C0.935453 16.0832 0.932554 16.06 0.926758 16.0151C1.0992 15.8339 1.27454 15.6514 1.44843 15.4775C8.84753 8.14212 18.8014 2.77321 29.0726 0.337274C29.0885 0.332927 29.1016 0.330029 29.1103 0.32858C29.1175 0.327131 29.1219 0.325684 29.1219 0.325684C29.132 0.328582 29.1422 0.33148 29.1523 0.334378C29.1682 0.337276 29.1827 0.341624 29.1987 0.344523C29.5682 0.437265 29.9348 0.537251 30.2942 0.632892C30.3333 0.643036 30.3724 0.654629 30.4116 0.664772C35.3443 2.02258 40.0858 4.10638 44.6345 6.51478C44.6345 6.51478 44.6345 6.51478 44.6359 6.51478C44.6606 6.54087 45.0678 6.98864 46.285 7.76536C47.5414 8.56671 48.3818 8.75944 48.3818 8.75944C50.9207 10.4781 53.3798 12.288 55.6389 14.3675C55.7114 14.4341 55.7809 14.4993 55.8476 14.5616C56.7098 15.376 57.2054 15.8992 57.2952 15.9991C57.3054 16.0107 57.3112 16.0165 57.3112 16.0165L57.3126 16.0209Z" fill="url(#paint10_linear_2376_1567)"/>
<path d="M18.7222 51.6338C18.7222 51.6338 27.5515 59.201 29.0369 59.201C30.4396 59.201 38.4821 52.4496 38.4821 52.4496C38.4777 52.4424 30.1671 57.9084 29.1513 57.9084C28.1355 57.9084 18.7222 51.6338 18.7222 51.6338Z" fill="#E68B40"/>
<path d="M49.3949 30.0842C49.4949 30.106 44.7346 47.1053 44.7346 47.1053C44.6665 47.0735 47.4575 41.593 48.3559 38.1992C48.9529 35.9415 49.3964 30.0842 49.3964 30.0842H49.3949Z" fill="#E68B40"/>
<g style="mix-blend-mode:multiply" opacity="0.4">
<path d="M24.1593 59.1821C26.9082 59.3154 25.1577 57.4373 24.068 56.7273C23.0391 56.0578 19.9917 55.0333 19.796 55.3912C19.4845 55.9593 22.3305 59.0937 24.1607 59.1821H24.1593Z" fill="#E8ACE4"/>
</g>
<g style="mix-blend-mode:multiply" opacity="0.4">
<path d="M24.7823 60.2834C23.0622 59.5878 22.4608 59.3472 23.281 60.7094C24.1012 62.0715 25.8908 60.7311 24.7823 60.2834Z" fill="#E8ACE4"/>
</g>
<g style="mix-blend-mode:multiply" opacity="0.4">
<path d="M31.6381 2.52362C31.2468 3.85535 33.5437 7.10857 35.7304 7.56938C37.6548 7.97368 39.598 5.17982 37.4896 4.03358C36.4491 3.46843 31.9279 1.53968 31.6381 2.52362Z" fill="#E8ACE4"/>
</g>
<g style="mix-blend-mode:multiply" opacity="0.4">
<path d="M38.5572 8.64916C39.2165 10.2272 40.8149 9.28387 39.9701 8.34051C39.1252 7.39714 37.9631 7.22615 38.5572 8.64916Z" fill="#E8ACE4"/>
</g>
<path d="M15.3196 55.8781C14.9168 56.5882 17.0716 60.1515 18.8511 58.2677C19.1597 57.9402 15.6225 55.3448 15.3196 55.8781Z" fill="#73081C"/>
<path style="mix-blend-mode:multiply" opacity="0.5" d="M15.3747 56.1273C15.2703 56.6634 16.0543 58.1024 16.5586 58.1835C17.0643 58.2647 18.0975 57.3677 17.0701 56.7156C15.9239 55.9881 15.4529 55.723 15.3747 56.1273Z" fill="url(#paint11_linear_2376_1567)"/>
<path d="M16.8076 58.5576C18.2248 59.3662 19.2638 58.972 19.1015 58.4156C18.9392 57.8591 18.5045 57.7012 18.5045 57.7012C18.5045 57.7012 18.9291 58.0316 18.7016 58.3634C18.4726 58.6953 16.8091 58.5561 16.8091 58.5561L16.8076 58.5576Z" fill="#E68B40"/>
<path d="M48.3835 8.76201C48.2314 8.91126 48.0836 9.04748 47.9416 9.15036C46.3577 10.3009 44.4608 9.00545 44.4478 7.16365C44.4449 6.755 44.6376 6.5188 44.6376 6.5188C44.6623 6.54488 45.0694 6.99265 46.2867 7.76937C47.5431 8.57072 48.3835 8.76346 48.3835 8.76346V8.76201Z" fill="#73081C"/>
<path style="mix-blend-mode:multiply" opacity="0.5" d="M44.5607 6.64818C44.3955 7.15101 44.565 8.66677 45.1722 8.88848C45.7793 9.11164 46.1431 8.05235 45.9779 7.79731C45.8127 7.54227 44.6476 6.38444 44.5607 6.64818Z" fill="url(#paint12_linear_2376_1567)"/>
<path d="M45.1333 9.00861C45.1333 9.00861 46.3187 10.149 48.1605 8.96948C48.1605 8.96948 47.9518 10.0911 46.6476 10.0954C45.9433 10.0983 45.1348 9.00861 45.1348 9.00861H45.1333Z" fill="#E68B40"/>
<path d="M22.0647 43.2233C21.8285 43.2233 21.6373 43.1639 21.4938 43.048C20.6446 42.3654 21.2127 39.56 21.9836 36.2386C22.143 35.5503 22.3082 34.8388 22.3198 34.6388C22.1807 34.4273 21.4069 33.7853 20.7214 33.2173C18.3565 31.2581 16.5654 29.6771 16.7784 28.6613C16.9567 27.8092 18.8579 27.4832 22.7878 27.1122C23.6602 27.0296 24.6456 26.9369 24.8774 26.8557C25.0006 26.6775 25.3093 25.908 25.5817 25.2255C26.7903 22.2099 27.8843 19.7117 29.0349 19.7117C29.1595 19.7117 29.2856 19.7464 29.4131 19.8146L29.4465 19.8319C30.4637 20.4116 31.7317 23.2924 32.8431 25.9486C33.0141 26.3558 33.1895 26.776 33.2648 26.9282C33.5126 27.0064 34.4183 27.0745 35.2226 27.1354C38.2164 27.36 40.7364 27.6252 41.261 28.5773C41.3015 28.6468 41.3276 28.7323 41.3305 28.8251C41.3798 29.5322 40.1596 30.6002 38.1425 32.2739C37.1817 33.0709 35.8674 34.1621 35.8008 34.4809C35.7863 34.6983 35.9877 35.6068 36.1833 36.485C36.8803 39.6165 37.3962 42.2698 36.6412 43.0262C36.5123 43.1552 36.3297 43.2204 36.0964 43.2204C35.0777 43.2204 32.8823 41.935 30.5289 40.5033C29.8928 40.1164 29.2363 39.7165 29.0175 39.6223C28.8117 39.715 28.2089 40.0961 27.6249 40.4657C25.3484 41.909 23.2124 43.2045 22.0923 43.2233H22.0647Z" fill="#8D001A"/>
<path d="M40.6771 28.6945V28.6974C40.7539 29.7842 35.3676 33.2823 35.3097 34.1388C35.2517 34.9749 37.1949 41.2538 36.211 42.2378C35.4111 43.0391 29.4596 38.8657 29.0191 38.8411H29.0148C28.638 38.8411 23.9154 42.316 22.2881 42.3421C22.1229 42.345 21.991 42.3131 21.8982 42.2378C20.8491 41.3958 22.8793 34.8068 22.8068 34.2576C22.7344 33.7069 17.1307 29.9639 17.4205 28.5858C17.6596 27.441 24.753 27.3425 25.179 27.0135C25.6036 26.6831 27.5729 20.1477 29.0351 20.1477C29.1148 20.1477 29.1988 20.1738 29.2843 20.2245H29.2887C30.5827 20.9606 32.6752 26.7049 32.923 27.057C33.1882 27.4352 39.9207 27.2686 40.6467 28.5858C40.6655 28.6177 40.6757 28.6554 40.6771 28.6945Z" fill="url(#paint13_linear_2376_1567)"/>
<g style="mix-blend-mode:multiply" opacity="0.5">
<path d="M29.0249 31.9754L22.8054 34.2577C22.7329 33.7071 17.1292 29.964 17.4191 28.5859L29.0249 31.9754Z" fill="#E07090"/>
</g>
<g style="mix-blend-mode:multiply" opacity="0.5">
<path d="M32.923 27.057L29.0249 31.9753L29.0336 20.1477L29.2828 20.2245H29.2872C30.5812 20.9606 32.6737 26.7049 32.9215 27.057H32.923Z" fill="#E07090"/>
</g>
<g style="mix-blend-mode:multiply" opacity="0.5">
<path d="M40.6771 28.6946V28.6975C40.7539 29.7843 35.3676 33.2825 35.3096 34.1389L29.0249 31.9754L40.6467 28.5859L40.6771 28.6946Z" fill="#E07090"/>
</g>
<g style="mix-blend-mode:soft-light" opacity="0.3">
<path d="M36.2109 42.2379C35.411 43.0392 29.4595 38.8658 29.019 38.8412V38.847L29.0146 38.8412L29.0248 31.9753L36.2109 42.2379Z" fill="white"/>
</g>
<g style="mix-blend-mode:multiply" opacity="0.5">
<path d="M29.0246 31.9753L29.0188 38.8412V38.847L29.0145 38.8412C28.6377 38.8412 23.9151 42.3161 22.2878 42.3422L21.8979 42.2379L29.0261 31.9753H29.0246Z" fill="#E07090"/>
</g>
<g style="mix-blend-mode:soft-light" opacity="0.3">
<path d="M29.0248 31.9754L17.4189 28.5859C17.658 27.4412 24.7514 27.3426 25.1774 27.0137L29.0248 31.9754Z" fill="white"/>
</g>
<path style="mix-blend-mode:multiply" opacity="0.5" d="M17.4205 28.5845C15.4714 29.1569 20.8534 39.5832 21.8098 39.076C22.7662 38.5673 28.2496 33.1231 29.0263 31.9754C29.0263 31.9754 18.7116 28.2063 17.4205 28.586V28.5845Z" fill="url(#paint14_linear_2376_1567)"/>
<path style="mix-blend-mode:multiply" opacity="0.5" d="M40.6493 28.5845C42.5983 29.1569 37.2164 39.5832 36.26 39.076C35.3036 38.5673 29.8202 33.1231 29.0435 31.9754C29.0435 31.9754 39.3581 28.2063 40.6493 28.586V28.5845Z" fill="url(#paint15_linear_2376_1567)"/>
<path style="mix-blend-mode:multiply" opacity="0.5" d="M29.0337 20.1479C28.7975 20.2015 29.0192 38.8398 29.0192 38.8398C29.6974 39.0934 35.4996 42.8712 36.2111 42.2365C37.3443 41.2265 35.1706 34.9808 35.3097 34.1375C35.4488 33.2941 41.0221 29.5728 40.6497 28.5845C40.1396 27.2311 33.2361 27.3615 32.9231 27.0557C32.3521 26.5007 30.2973 19.8566 29.0351 20.1464L29.0337 20.1479Z" fill="url(#paint16_linear_2376_1567)"/>
<g style="mix-blend-mode:multiply" opacity="0.7">
<path d="M29.0246 31.9753C27.2408 34.4924 21.8965 41.635 21.8965 42.2378C21.8965 43.0913 35.9368 43.1826 36.2107 42.2378C36.4846 41.293 29.3593 31.5029 29.0246 31.9753Z" fill="#AF0B16"/>
</g>
<defs>
<linearGradient id="paint0_linear_2376_1567" x1="49.9618" y1="33.5778" x2="58.0898" y2="33.5778" gradientUnits="userSpaceOnUse">
<stop stop-color="#662D87"/>
<stop offset="1" stop-color="#D01C5C"/>
</linearGradient>
<linearGradient id="paint1_linear_2376_1567" x1="28.9048" y1="60.7297" x2="49.8819" y2="60.7297" gradientUnits="userSpaceOnUse">
<stop stop-color="#961F63"/>
<stop offset="1" stop-color="#EA7052"/>
</linearGradient>
<radialGradient id="paint2_radial_2376_1567" cx="0" cy="0" r="1" gradientUnits="userSpaceOnUse" gradientTransform="translate(29.118 33.0099) scale(22.2103 22.2103)">
<stop stop-color="#CE5411"/>
<stop offset="1" stop-color="#B42B00"/>
</radialGradient>
<linearGradient id="paint3_linear_2376_1567" x1="40.1396" y1="19.1828" x2="40.1396" y2="5.96411" gradientUnits="userSpaceOnUse">
<stop stop-color="#662D87"/>
<stop offset="1" stop-color="#D01C5C"/>
</linearGradient>
<linearGradient id="paint4_linear_2376_1567" x1="29.119" y1="65.3004" x2="29.119" y2="0.327165" gradientUnits="userSpaceOnUse">
<stop stop-color="#CE5411"/>
<stop offset="1" stop-color="#B42B00"/>
</linearGradient>
<radialGradient id="paint5_radial_2376_1567" cx="0" cy="0" r="1" gradientUnits="userSpaceOnUse" gradientTransform="translate(15.4702 11.9807) scale(12.7709 12.7709)">
<stop offset="0.02" stop-color="#FFA41A"/>
<stop offset="1" stop-color="#FF8836"/>
</radialGradient>
<linearGradient id="paint6_linear_2376_1567" x1="29.118" y1="11.156" x2="29.118" y2="57.4388" gradientUnits="userSpaceOnUse">
<stop stop-color="#662D87"/>
<stop offset="1" stop-color="#D01C5C"/>
</linearGradient>
<linearGradient id="paint7_linear_2376_1567" x1="29.1194" y1="6.31595" x2="29.1194" y2="24.308" gradientUnits="userSpaceOnUse">
<stop stop-color="#662D87"/>
<stop offset="1" stop-color="#D01C5C"/>
</linearGradient>
<linearGradient id="paint8_linear_2376_1567" x1="50.2285" y1="22.6402" x2="50.2285" y2="50.2919" gradientUnits="userSpaceOnUse">
<stop stop-color="#BE0E55"/>
<stop offset="1" stop-color="#E8A9C3"/>
</linearGradient>
<linearGradient id="paint9_linear_2376_1567" x1="7.54822" y1="22.5967" x2="7.54822" y2="49.4789" gradientUnits="userSpaceOnUse">
<stop stop-color="#BE0E55"/>
<stop offset="1" stop-color="#E8A9C3"/>
</linearGradient>
<linearGradient id="paint10_linear_2376_1567" x1="29.119" y1="0.327133" x2="29.119" y2="18.4394" gradientUnits="userSpaceOnUse">
<stop stop-color="#961F63"/>
<stop offset="1" stop-color="#EA7052"/>
</linearGradient>
<linearGradient id="paint11_linear_2376_1567" x1="15.3645" y1="57.0634" x2="17.5092" y2="57.0634" gradientUnits="userSpaceOnUse">
<stop stop-color="#662D87"/>
<stop offset="1" stop-color="#D01C5C"/>
</linearGradient>
<linearGradient id="paint12_linear_2376_1567" x1="44.5012" y1="7.76398" x2="46.017" y2="7.76398" gradientUnits="userSpaceOnUse">
<stop stop-color="#662D87"/>
<stop offset="1" stop-color="#D01C5C"/>
</linearGradient>
<linearGradient id="paint13_linear_2376_1567" x1="29.0438" y1="20.1477" x2="29.0438" y2="42.3421" gradientUnits="userSpaceOnUse">
<stop stop-color="#FF9600"/>
<stop offset="1" stop-color="#FFA900"/>
</linearGradient>
<linearGradient id="paint14_linear_2376_1567" x1="16.9973" y1="33.8259" x2="29.0248" y2="33.8259" gradientUnits="userSpaceOnUse">
<stop stop-color="#961F63"/>
<stop offset="1" stop-color="#EA7052"/>
</linearGradient>
<linearGradient id="paint15_linear_2376_1567" x1="41.0724" y1="33.8259" x2="29.0449" y2="33.8259" gradientUnits="userSpaceOnUse">
<stop stop-color="#961F63"/>
<stop offset="1" stop-color="#EA7052"/>
</linearGradient>
<linearGradient id="paint16_linear_2376_1567" x1="28.925" y1="31.2233" x2="40.667" y2="31.2233" gradientUnits="userSpaceOnUse">
<stop stop-color="#BE0E55"/>
<stop offset="1" stop-color="#E8A9C3"/>
</linearGradient>
</defs>
</svg>
