<svg width="428" height="753" viewBox="0 0 428 753" fill="none" xmlns="http://www.w3.org/2000/svg">
<g opacity="0.08">
<g filter="url(#filter0_d_383_4524)">
<path d="M219.239 463.817H219.233C219.066 462.045 218.158 460.684 217.054 460.684C215.951 460.684 215.037 462.045 214.875 463.817L214 473.003H220.114L219.239 463.817ZM217.054 466.372C216.408 466.372 215.884 465.496 215.884 464.414C215.884 463.332 216.408 462.456 217.054 462.456C217.701 462.456 218.225 463.332 218.225 464.414C218.225 465.496 217.701 466.372 217.054 466.372Z" fill="#D80621" fill-opacity="0.34"/>
<path d="M218.527 463.55V328.984" stroke="#D80621" stroke-width="0.835997" stroke-miterlimit="10" stroke-linecap="round"/>
<g filter="url(#filter1_d_383_4524)">
<path d="M217.12 535.486C236.931 535.486 252.99 519.426 252.99 499.616C252.99 479.806 236.931 463.746 217.12 463.746C197.31 463.746 181.25 479.806 181.25 499.616C181.25 519.426 197.31 535.486 217.12 535.486Z" fill="#D80621" fill-opacity="0.52"/>
</g>
<path d="M221.957 532.755C240.284 529.78 252.729 512.511 249.754 494.184C246.779 475.857 229.511 463.412 211.184 466.387C192.857 469.362 180.412 486.63 183.387 504.957C186.361 523.284 203.63 535.73 221.957 532.755Z" fill="#D80621"/>
<path style="mix-blend-mode:color-burn" opacity="0.38" d="M221.957 532.755C240.284 529.78 252.729 512.511 249.754 494.184C246.779 475.857 229.511 463.412 211.184 466.387C192.857 469.362 180.412 486.63 183.387 504.957C186.361 523.284 203.63 535.73 221.957 532.755Z" fill="white"/>
<path style="mix-blend-mode:color-burn" opacity="0.1" d="M232.085 469.799C235.429 474.887 236.984 481.09 237.257 487.12C237.602 494.856 233.545 503.695 228.161 509.085C222.777 514.474 214.161 518.181 206.197 518.181C197.826 518.181 190.396 514.697 184.333 509.174C188.451 523.079 201.32 533.228 216.563 533.228C235.128 533.228 250.181 518.175 250.181 499.61C250.181 486.647 242.836 475.4 232.085 469.793V469.799Z" fill="white"/>
<path opacity="0.66" d="M218.134 466C217.9 466 217.672 466.011 217.438 466.017C235.679 466.39 250.359 481.282 250.359 499.618C250.359 517.954 235.685 532.846 217.438 533.22C217.672 533.22 217.9 533.236 218.134 533.236C236.699 533.236 251.752 518.183 251.752 499.618C251.752 481.054 236.699 466 218.134 466Z" fill="url(#paint0_radial_383_4524)"/>
<path style="mix-blend-mode:color-burn" opacity="0.38" d="M184.689 499.618C184.689 481.343 199.275 466.485 217.433 466.022C217.143 466.017 216.853 466 216.558 466C197.993 466 182.939 481.054 182.939 499.618C182.939 518.183 197.993 533.236 216.558 533.236C216.847 533.236 217.137 533.22 217.433 533.214C199.269 532.752 184.689 517.893 184.689 499.618Z" fill="white"/>
<g style="mix-blend-mode:screen" opacity="0.45" filter="url(#filter2_d_383_4524)">
<path d="M227.971 496.908C227.971 490.688 222.866 485.645 216.563 485.645C210.259 485.645 205.154 490.688 205.154 496.908C205.154 499.015 205.739 500.982 206.759 502.665C206.759 502.665 206.771 502.688 206.776 502.693C206.793 502.721 206.81 502.749 206.826 502.771C209.479 507.224 216.568 518.042 216.568 518.042C216.568 518.042 223.652 507.224 226.305 502.771C226.322 502.743 226.338 502.716 226.355 502.688C226.355 502.677 226.366 502.671 226.372 502.66C227.392 500.977 227.977 499.009 227.977 496.903L227.971 496.908ZM216.563 501.233C214.144 501.233 212.182 499.294 212.182 496.908C212.182 494.523 214.144 492.583 216.563 492.583C218.982 492.583 220.943 494.523 220.943 496.908C220.943 499.294 218.982 501.233 216.563 501.233Z" fill="white"/>
</g>
</g>
<g filter="url(#filter3_d_383_4524)">
<path d="M396.239 510.835H396.233C396.066 508.874 395.158 507.367 394.054 507.367C392.951 507.367 392.037 508.874 391.875 510.835L391 521H397.114L396.239 510.835ZM394.054 513.662C393.408 513.662 392.884 512.692 392.884 511.495C392.884 510.298 393.408 509.328 394.054 509.328C394.701 509.328 395.225 510.298 395.225 511.495C395.225 512.692 394.701 513.662 394.054 513.662Z" fill="#D80621" fill-opacity="0.34"/>
<path d="M394.054 510.524V2" stroke="#D80621" stroke-width="0.835997" stroke-miterlimit="10" stroke-linecap="round"/>
</g>
<g filter="url(#filter4_d_383_4524)">
<path d="M76.2389 438.296H76.2334C76.0662 437.967 75.1577 437.715 74.0542 437.715C72.9506 437.715 72.0366 437.967 71.875 438.296L71 440H77.1139L76.2389 438.296ZM74.0542 438.77C73.4077 438.77 72.8838 438.608 72.8838 438.407C72.8838 438.206 73.4077 438.044 74.0542 438.044C74.7007 438.044 75.2245 438.206 75.2245 438.407C75.2245 438.608 74.7007 438.77 74.0542 438.77Z" fill="#D80621" fill-opacity="0.34"/>
<path d="M74.0537 438.245V353" stroke="#D80621" stroke-width="0.835997" stroke-miterlimit="10" stroke-linecap="round"/>
</g>
<g filter="url(#filter5_d_383_4524)">
<path d="M145.239 664.603H145.233C145.066 662 144.158 660 143.054 660C141.951 660 141.037 662 140.875 664.603L140 678.098H146.114L145.239 664.603ZM143.054 668.357C142.408 668.357 141.884 667.069 141.884 665.48C141.884 663.891 142.408 662.603 143.054 662.603C143.701 662.603 144.225 663.891 144.225 665.48C144.225 667.069 143.701 668.357 143.054 668.357Z" fill="#D80621" fill-opacity="0.34"/>
<g filter="url(#filter6_d_383_4524)">
<path d="M303.239 581.241H303.233C303.066 580.323 302.158 579.617 301.054 579.617C299.951 579.617 299.037 580.323 298.875 581.241L298 586H304.114L303.239 581.241ZM301.054 582.565C300.408 582.565 299.884 582.11 299.884 581.55C299.884 580.989 300.408 580.535 301.054 580.535C301.701 580.535 302.225 580.989 302.225 581.55C302.225 582.11 301.701 582.565 301.054 582.565Z" fill="#D80621" fill-opacity="0.34"/>
<path d="M301.054 581.094V343" stroke="#D80621" stroke-width="0.835997" stroke-miterlimit="10" stroke-linecap="round"/>
</g>
<g filter="url(#filter7_d_383_4524)">
<path d="M302.03 657.33C321.84 657.33 337.899 641.27 337.899 621.46C337.899 601.649 321.84 585.59 302.03 585.59C282.219 585.59 266.16 601.649 266.16 621.46C266.16 641.27 282.219 657.33 302.03 657.33Z" fill="#D80621" fill-opacity="0.52"/>
</g>
<path d="M334.161 629.163C338.426 611.093 327.235 592.986 309.164 588.721C291.094 584.456 272.987 595.648 268.722 613.718C264.457 631.789 275.649 649.895 293.719 654.16C311.79 658.425 329.896 647.233 334.161 629.163Z" fill="#D80621"/>
<path style="mix-blend-mode:color-burn" opacity="0.38" d="M334.161 629.163C338.426 611.093 327.235 592.986 309.164 588.721C291.094 584.456 272.987 595.648 268.722 613.718C264.457 631.789 275.649 649.895 293.719 654.16C311.79 658.425 329.896 647.233 334.161 629.163Z" fill="white"/>
<path style="mix-blend-mode:color-burn" opacity="0.1" d="M316.994 591.642C320.338 596.731 321.893 602.934 322.166 608.964C322.511 616.7 318.454 625.539 313.07 630.929C307.436 636.563 299.07 640.024 291.106 640.024C282.735 640.024 275.305 636.541 269.242 631.018C273.36 644.923 286.229 655.072 301.472 655.072C320.037 655.072 335.09 640.019 335.09 621.454C335.09 608.49 327.745 597.243 316.994 591.637V591.642Z" fill="white"/>
<path opacity="0.66" d="M303.039 587.84C302.805 587.84 302.576 587.851 302.342 587.857C320.584 588.23 335.264 603.122 335.264 621.458C335.264 639.794 320.589 654.686 302.342 655.06C302.576 655.06 302.805 655.076 303.039 655.076C321.604 655.076 336.657 640.023 336.657 621.458C336.657 602.893 321.604 587.84 303.039 587.84Z" fill="url(#paint1_radial_383_4524)"/>
<path style="mix-blend-mode:color-burn" opacity="0.38" d="M269.599 621.458C269.599 603.183 284.184 588.325 302.342 587.862C302.052 587.857 301.762 587.84 301.467 587.84C282.902 587.84 267.849 602.893 267.849 621.458C267.849 640.023 282.902 655.076 301.467 655.076C301.757 655.076 302.047 655.06 302.342 655.054C284.178 654.591 269.599 639.733 269.599 621.458Z" fill="white"/>
<g style="mix-blend-mode:screen" opacity="0.45">
<path d="M315.019 630.153V613.383L305.701 621.765L315.019 630.153Z" fill="white"/>
<path d="M301.51 625.539L298.851 623.148L289.533 631.531H313.487L304.168 623.148L301.51 625.539Z" fill="white"/>
<path d="M313.487 612H289.533L301.51 622.779L313.487 612Z" fill="white"/>
<path d="M288 613.383V630.153L297.319 621.765L288 613.383Z" fill="white"/>
</g>
<g filter="url(#filter8_d_383_4524)">
<path d="M388.03 583.33C407.84 583.33 423.899 567.27 423.899 547.46C423.899 527.649 407.84 511.59 388.03 511.59C368.219 511.59 352.16 527.649 352.16 547.46C352.16 567.27 368.219 583.33 388.03 583.33Z" fill="#D80621" fill-opacity="0.52"/>
</g>
<path d="M420.161 555.163C424.426 537.093 413.235 518.986 395.164 514.721C377.094 510.456 358.987 521.648 354.722 539.718C350.457 557.789 361.649 575.895 379.719 580.16C397.79 584.425 415.896 573.233 420.161 555.163Z" fill="#D80621"/>
<path style="mix-blend-mode:color-burn" opacity="0.38" d="M420.161 555.163C424.426 537.093 413.235 518.986 395.164 514.721C377.094 510.456 358.987 521.648 354.722 539.718C350.457 557.789 361.649 575.895 379.719 580.16C397.79 584.425 415.896 573.233 420.161 555.163Z" fill="white"/>
<path style="mix-blend-mode:color-burn" opacity="0.1" d="M402.994 517.642C406.338 522.731 407.893 528.934 408.166 534.964C408.511 542.7 404.454 551.539 399.07 556.929C393.436 562.563 385.07 566.024 377.106 566.024C368.735 566.024 361.305 562.541 355.242 557.018C359.36 570.923 372.229 581.072 387.472 581.072C406.037 581.072 421.09 566.019 421.09 547.454C421.09 534.49 413.745 523.243 402.994 517.637V517.642Z" fill="white"/>
<path opacity="0.66" d="M389.039 513.84C388.805 513.84 388.576 513.851 388.342 513.857C406.584 514.23 421.264 529.122 421.264 547.458C421.264 565.794 406.589 580.686 388.342 581.06C388.576 581.06 388.805 581.076 389.039 581.076C407.604 581.076 422.657 566.023 422.657 547.458C422.657 528.893 407.604 513.84 389.039 513.84Z" fill="url(#paint2_radial_383_4524)"/>
<path style="mix-blend-mode:color-burn" opacity="0.38" d="M355.599 547.458C355.599 529.183 370.184 514.325 388.342 513.862C388.052 513.857 387.762 513.84 387.467 513.84C368.902 513.84 353.849 528.893 353.849 547.458C353.849 566.023 368.902 581.076 387.467 581.076C387.757 581.076 388.047 581.06 388.342 581.054C370.178 580.591 355.599 565.733 355.599 547.458Z" fill="white"/>
<g style="mix-blend-mode:screen" opacity="0.45">
<path d="M401.48 545.169C401.48 538.999 395.126 534 387.29 534C379.454 534 373.101 539.005 373.101 545.169C373.101 551.333 379.454 556.338 387.29 556.338C387.647 556.338 387.998 556.321 388.349 556.304C388.856 557.91 390.434 560.685 395.372 561.393C394.335 560.183 392.122 558.378 392.78 555.474C397.891 553.785 401.48 549.806 401.48 545.169ZM379.309 541.686H394.92V544.16H379.309V541.686ZM379.309 549.299V546.824H394.92V549.299H379.309Z" fill="white"/>
</g>
<g filter="url(#filter9_d_383_4524)">
<path d="M77.0296 506.33C96.84 506.33 112.899 490.27 112.899 470.46C112.899 450.649 96.84 434.59 77.0296 434.59C57.2192 434.59 41.1597 450.649 41.1597 470.46C41.1597 490.27 57.2192 506.33 77.0296 506.33Z" fill="#D80621" fill-opacity="0.52"/>
</g>
<path d="M109.161 478.163C113.426 460.093 102.235 441.986 84.1642 437.721C66.0938 433.456 47.9874 444.648 43.7225 462.718C39.4575 480.789 50.6489 498.895 68.7193 503.16C86.7896 507.425 104.896 496.233 109.161 478.163Z" fill="#D80621"/>
<path style="mix-blend-mode:color-burn" opacity="0.38" d="M109.161 478.163C113.426 460.093 102.235 441.986 84.1642 437.721C66.0938 433.456 47.9874 444.648 43.7225 462.718C39.4575 480.789 50.6489 498.895 68.7193 503.16C86.7896 507.425 104.896 496.233 109.161 478.163Z" fill="white"/>
<path style="mix-blend-mode:color-burn" opacity="0.1" d="M91.9939 440.642C95.3379 445.731 96.8928 451.934 97.1659 457.964C97.5114 465.7 93.4541 474.539 88.0703 479.929C82.4356 485.563 74.0701 489.024 66.1058 489.024C57.7347 489.024 50.3055 485.541 44.2417 480.018C48.3604 493.923 61.2292 504.072 76.4722 504.072C95.0369 504.072 110.09 489.019 110.09 470.454C110.09 457.49 102.745 446.243 91.9939 440.637V440.642Z" fill="white"/>
<path opacity="0.66" d="M78.0389 436.84C77.8049 436.84 77.5764 436.851 77.3423 436.857C95.5837 437.23 110.264 452.122 110.264 470.458C110.264 488.794 95.5893 503.686 77.3423 504.06C77.5764 504.06 77.8049 504.076 78.0389 504.076C96.6037 504.076 111.657 489.023 111.657 470.458C111.657 451.893 96.6037 436.84 78.0389 436.84Z" fill="url(#paint3_radial_383_4524)"/>
<path style="mix-blend-mode:color-burn" opacity="0.38" d="M44.5987 470.458C44.5987 452.183 59.184 437.325 77.3419 436.862C77.0521 436.857 76.7623 436.84 76.4669 436.84C57.9022 436.84 42.8486 451.893 42.8486 470.458C42.8486 489.023 57.9022 504.076 76.4669 504.076C76.7567 504.076 77.0465 504.06 77.3419 504.054C59.1785 503.591 44.5987 488.733 44.5987 470.458Z" fill="white"/>
<g style="mix-blend-mode:screen" opacity="0.45">
<path d="M91.6918 466.177C90.3263 458.163 83.081 457.906 83.081 457.906H68.8356C68.8356 457.906 61.5848 458.163 60.2249 466.177C59.7511 468.964 61.7073 468.679 61.7073 468.679H65.213C67.4088 468.679 67.3364 466.194 67.3364 466.194C67.682 464.249 68.8635 461.863 72.6088 461.863H79.3135C83.0532 461.863 84.2403 464.243 84.5858 466.194C84.5858 466.194 84.5077 468.679 86.7092 468.679H90.2148C90.2148 468.679 92.1711 468.964 91.6974 466.177H91.6918Z" fill="white"/>
<path d="M86.815 475.324C83.2537 468.993 81.4702 466.418 81.4702 466.418H70.5855L64.845 476.116C64.845 476.116 60.888 482.848 69.3984 482.848H85.0371C85.0371 482.848 90.3819 481.661 86.815 475.324ZM76.1812 479.504C73.4391 479.504 71.2209 477.28 71.2209 474.544C71.2209 471.807 73.4391 469.584 76.1812 469.584C78.9232 469.584 81.1414 471.802 81.1414 474.544C81.1414 477.286 78.9232 479.504 76.1812 479.504Z" fill="white"/>
</g>
<g filter="url(#filter10_d_383_4524)">
<path d="M148.03 748.423C167.84 748.423 183.899 732.364 183.899 712.553C183.899 692.743 167.84 676.684 148.03 676.684C128.219 676.684 112.16 692.743 112.16 712.553C112.16 732.364 128.219 748.423 148.03 748.423Z" fill="#D80621" fill-opacity="0.52"/>
</g>
<path d="M180.161 720.257C184.426 702.187 173.235 684.08 155.164 679.815C137.094 675.55 118.987 686.742 114.722 704.812C110.457 722.882 121.649 740.989 139.719 745.254C157.79 749.519 175.896 738.327 180.161 720.257Z" fill="#D80621"/>
<path style="mix-blend-mode:color-burn" opacity="0.38" d="M180.161 720.257C184.426 702.187 173.235 684.08 155.164 679.815C137.094 675.55 118.987 686.742 114.722 704.812C110.457 722.882 121.649 740.989 139.719 745.254C157.79 749.519 175.896 738.327 180.161 720.257Z" fill="white"/>
<path style="mix-blend-mode:color-burn" opacity="0.1" d="M162.994 682.736C166.338 687.824 167.893 694.028 168.166 700.058C168.511 707.794 164.454 716.633 159.07 722.022C153.436 727.657 145.07 731.118 137.106 731.118C128.735 731.118 121.305 727.635 115.242 722.112C119.36 736.017 132.229 746.166 147.472 746.166C166.037 746.166 181.09 731.112 181.09 712.548C181.09 699.584 173.745 688.337 162.994 682.73V682.736Z" fill="white"/>
<g style="mix-blend-mode:screen" opacity="0.45">
<path d="M147.66 698.648C140.131 698.648 134 705.102 134 713.039C134 720.975 140.125 727.429 147.66 727.429C155.195 727.429 161.32 720.975 161.32 713.039C161.32 705.102 155.195 698.648 147.66 698.648ZM157.452 721.048C157.034 720.635 155.937 719.704 154.053 718.941C154.627 716.717 154.8 714.677 154.855 713.68H160.027C159.899 716.45 158.963 718.991 157.458 721.053L157.452 721.048ZM137.745 705.192C138.236 705.615 139.222 706.301 140.95 706.869C140.51 708.413 140.209 710.241 140.158 712.403H135.293C135.416 709.706 136.307 707.22 137.745 705.192ZM146.913 700.449L146.685 699.969C146.791 699.958 146.897 699.947 146.997 699.941V706.529C145.202 706.473 143.742 706.267 142.577 705.988C144.143 701.848 146.757 700.521 146.913 700.443V700.449ZM148.318 707.822C150.163 707.8 151.656 707.599 152.866 707.304C153.267 708.725 153.546 710.408 153.59 712.403H148.318V707.822ZM148.318 706.546V700.566C148.981 700.967 151.121 702.494 152.464 706.089C151.378 706.345 150.012 706.524 148.318 706.546ZM148.318 700.019V699.947C148.318 699.947 148.34 699.947 148.351 699.947L148.318 700.019ZM146.997 707.811V712.403H141.435C141.485 710.364 141.764 708.653 142.176 707.215C143.458 707.527 145.046 707.755 146.997 707.817V707.811ZM140.17 713.68C140.225 714.688 140.404 716.756 140.989 719.013C139.311 719.649 138.191 720.373 137.656 720.763C136.274 718.757 135.41 716.321 135.293 713.685H140.17V713.68ZM141.452 713.68H146.997V717.837C145.147 717.904 143.553 718.205 142.221 718.595C141.691 716.533 141.513 714.627 141.452 713.68ZM146.997 719.114V725.841C144.723 724.737 143.369 722.29 142.572 719.827C143.803 719.465 145.28 719.181 146.997 719.114ZM148.318 725.696V719.108C149.956 719.153 151.339 719.403 152.475 719.749C151.718 722.14 150.447 724.52 148.318 725.696ZM148.318 717.832V713.68H153.568C153.507 714.622 153.334 716.489 152.821 718.517C151.584 718.144 150.085 717.876 148.312 717.832H148.318ZM154.866 712.403C154.816 710.274 154.526 708.463 154.097 706.936C155.898 706.295 156.856 705.448 157.33 704.868C158.907 706.958 159.894 709.561 160.022 712.398H154.866V712.403ZM156.494 703.865C156.271 704.199 155.546 705.063 153.707 705.721C152.632 702.778 151.043 701.062 149.934 700.153C152.476 700.655 154.749 701.987 156.494 703.865ZM144.985 700.237C143.893 701.156 142.388 702.84 141.346 705.649C139.724 705.113 138.877 704.484 138.537 704.183C140.225 702.232 142.46 700.828 144.985 700.237ZM138.431 721.772C138.888 721.443 139.863 720.808 141.346 720.239C142.003 722.268 143.023 724.308 144.6 725.746C142.182 725.094 140.047 723.684 138.431 721.772ZM150.308 725.846C151.963 724.392 153.022 722.279 153.696 720.184C155.502 720.942 156.449 721.845 156.644 722.045C154.967 723.923 152.771 725.278 150.308 725.846Z" fill="white"/>
</g>
<path opacity="0.66" d="M149.039 678.934C148.805 678.934 148.576 678.945 148.342 678.95C166.584 679.324 181.264 694.216 181.264 712.552C181.264 730.888 166.589 745.78 148.342 746.153C148.576 746.153 148.805 746.17 149.039 746.17C167.604 746.17 182.657 731.117 182.657 712.552C182.657 693.987 167.604 678.934 149.039 678.934Z" fill="url(#paint4_radial_383_4524)"/>
<path style="mix-blend-mode:color-burn" opacity="0.38" d="M115.599 712.552C115.599 694.277 130.184 679.418 148.342 678.956C148.052 678.95 147.762 678.934 147.467 678.934C128.902 678.934 113.849 693.987 113.849 712.552C113.849 731.117 128.902 746.17 147.467 746.17C147.757 746.17 148.047 746.153 148.342 746.148C130.178 745.685 115.599 730.827 115.599 712.552Z" fill="white"/>
<path d="M143.012 659.998L143.527 352.992" stroke="#D80621" stroke-width="0.835997" stroke-miterlimit="10" stroke-linecap="round"/>
</g>
<g filter="url(#filter11_d_383_4524)">
<path d="M44.1007 278.74H44.0952C43.928 277.67 43.0195 276.848 41.916 276.848C40.8125 276.848 39.8984 277.67 39.7368 278.74L38.8618 284.289H44.9757L44.1007 278.74ZM41.916 280.284C41.2695 280.284 40.7456 279.754 40.7456 279.101C40.7456 278.447 41.2695 277.918 41.916 277.918C42.5625 277.918 43.0864 278.447 43.0864 279.101C43.0864 279.754 42.5625 280.284 41.916 280.284Z" fill="#D80621" fill-opacity="0.34"/>
<path d="M41.916 278.57V1" stroke="#D80621" stroke-width="0.835997" stroke-miterlimit="10" stroke-linecap="round"/>
</g>
<g filter="url(#filter12_d_383_4524)">
<path d="M41.0296 353.775C60.84 353.775 76.8994 337.715 76.8994 317.905C76.8994 298.095 60.84 282.035 41.0296 282.035C21.2192 282.035 5.15967 298.095 5.15967 317.905C5.15967 337.715 21.2192 353.775 41.0296 353.775Z" fill="#D80621" fill-opacity="0.52"/>
</g>
<path d="M73.161 325.608C77.426 307.538 66.2345 289.432 48.1642 285.167C30.0938 280.902 11.9874 292.093 7.72246 310.164C3.45747 328.234 14.6489 346.34 32.7193 350.605C50.7896 354.87 68.896 343.679 73.161 325.608Z" fill="#D80621"/>
<path style="mix-blend-mode:color-burn" opacity="0.38" d="M73.161 325.608C77.426 307.538 66.2345 289.432 48.1642 285.167C30.0938 280.902 11.9874 292.093 7.72246 310.164C3.45747 328.234 14.6489 346.34 32.7193 350.605C50.7896 354.87 68.896 343.679 73.161 325.608Z" fill="white"/>
<path style="mix-blend-mode:color-burn" opacity="0.1" d="M55.9939 288.088C59.3379 293.176 60.8928 299.379 61.1659 305.409C61.5114 313.145 57.4541 321.985 52.0703 327.374C46.4356 333.009 38.0701 336.47 30.1058 336.47C21.7347 336.47 14.3055 332.986 8.2417 327.463C12.3604 341.369 25.2292 351.518 40.4722 351.518C59.0369 351.518 74.0904 336.464 74.0904 317.899C74.0904 304.936 66.7448 293.689 55.9939 288.082V288.088Z" fill="white"/>
<g style="mix-blend-mode:screen" opacity="0.45">
<path d="M40.6602 304C33.1307 304 27 310.454 27 318.39C27 326.327 33.1251 332.781 40.6602 332.781C48.1953 332.781 54.3203 326.327 54.3203 318.39C54.3203 310.454 48.1953 304 40.6602 304ZM50.4525 326.399C50.0345 325.987 48.9366 325.056 47.0528 324.292C47.6268 322.069 47.7996 320.029 47.8553 319.031H53.0274C52.8992 321.801 51.9629 324.343 50.4581 326.405L50.4525 326.399ZM30.7453 310.543C31.2357 310.967 32.2222 311.652 33.9499 312.221C33.5096 313.764 33.2086 315.592 33.1585 317.755H28.293C28.4156 315.057 29.3073 312.572 30.7453 310.543ZM39.9133 305.8L39.6849 305.321C39.7908 305.31 39.8966 305.299 39.9969 305.293V311.881C38.2023 311.825 36.7421 311.619 35.5773 311.34C37.1434 307.199 39.7573 305.873 39.9133 305.795V305.8ZM41.3178 313.174C43.1626 313.151 44.6563 312.951 45.8657 312.655C46.2669 314.077 46.5456 315.76 46.5902 317.755H41.3178V313.174ZM41.3178 311.897V305.917C41.981 306.319 44.1212 307.846 45.4644 311.44C44.3776 311.697 43.0121 311.875 41.3178 311.897ZM41.3178 305.371V305.299C41.3178 305.299 41.3401 305.299 41.3513 305.299L41.3178 305.371ZM39.9969 313.163V317.755H34.4348C34.4849 315.715 34.7636 314.004 35.176 312.566C36.4579 312.878 38.0463 313.107 39.9969 313.168V313.163ZM33.1696 319.031C33.2254 320.04 33.4037 322.108 33.9889 324.365C32.3113 325 31.1911 325.725 30.6561 326.115C29.2739 324.109 28.41 321.673 28.293 319.037H33.1696V319.031ZM34.4515 319.031H39.9969V323.189C38.1466 323.256 36.5527 323.557 35.2206 323.947C34.6912 321.885 34.5128 319.979 34.4515 319.031ZM39.9969 324.465V331.192C37.723 330.089 36.3687 327.642 35.5718 325.179C36.8035 324.816 38.2804 324.532 39.9969 324.465ZM41.3178 331.047V324.46C42.9564 324.504 44.3385 324.755 45.4755 325.101C44.7175 327.492 43.4468 329.871 41.3178 331.047ZM41.3178 323.183V319.031H46.5679C46.5066 319.973 46.3338 321.84 45.821 323.869C44.5838 323.495 43.0846 323.228 41.3122 323.183H41.3178ZM47.8665 317.755C47.8163 315.626 47.5265 313.815 47.0973 312.288C48.8975 311.647 49.8562 310.799 50.3299 310.22C51.9071 312.31 52.8936 314.913 53.0218 317.749H47.8665V317.755ZM49.4939 309.217C49.271 309.551 48.5464 310.415 46.7072 311.073C45.6316 308.13 44.0432 306.413 42.9341 305.505C45.4755 306.006 47.7494 307.338 49.4939 309.217ZM37.985 305.588C36.8926 306.508 35.3878 308.191 34.3456 311C32.7238 310.465 31.8766 309.835 31.5366 309.534C33.2253 307.584 35.4603 306.179 37.985 305.588ZM31.4308 327.124C31.8878 326.795 32.8631 326.16 34.3456 325.591C35.0032 327.62 36.0231 329.66 37.6004 331.097C35.1816 330.445 33.047 329.035 31.4308 327.124ZM43.3075 331.198C44.9628 329.743 46.0217 327.631 46.6961 325.535C48.5018 326.293 49.4493 327.196 49.6444 327.397C47.9668 329.275 45.7709 330.629 43.3075 331.198Z" fill="white"/>
</g>
<path opacity="0.66" d="M42.0389 284.285C41.8049 284.285 41.5764 284.296 41.3423 284.302C59.5837 284.675 74.2638 299.567 74.2638 317.903C74.2638 336.24 59.5893 351.132 41.3423 351.505C41.5764 351.505 41.8049 351.522 42.0389 351.522C60.6037 351.522 75.6572 336.468 75.6572 317.903C75.6572 299.339 60.6037 284.285 42.0389 284.285Z" fill="url(#paint5_radial_383_4524)"/>
<path style="mix-blend-mode:color-burn" opacity="0.38" d="M8.59866 317.903C8.59866 299.628 23.184 284.77 41.3419 284.307C41.0521 284.302 40.7623 284.285 40.4669 284.285C21.9022 284.285 6.84863 299.339 6.84863 317.903C6.84863 336.468 21.9022 351.522 40.4669 351.522C40.7567 351.522 41.0465 351.505 41.3419 351.499C23.1785 351.037 8.59866 336.178 8.59866 317.903Z" fill="white"/>
<g filter="url(#filter13_d_383_4524)">
<path d="M102.244 156.689H102.239C102.071 155.63 101.163 154.816 100.06 154.816C98.956 154.816 98.042 155.63 97.8804 156.689L97.0054 162.179H103.119L102.244 156.689ZM100.06 158.222C99.413 158.222 98.8892 157.698 98.8892 157.051C98.8892 156.405 99.413 155.881 100.06 155.881C100.706 155.881 101.23 156.405 101.23 157.051C101.23 157.698 100.706 158.222 100.06 158.222Z" fill="#D80621" fill-opacity="0.34"/>
<path d="M100.06 156.525L100 2" stroke="#D80621" stroke-width="0.835997" stroke-miterlimit="10" stroke-linecap="round"/>
</g>
<g filter="url(#filter14_d_383_4524)">
<path d="M134.061 204.022C138.612 184.741 126.671 165.422 107.39 160.871C88.1094 156.321 68.7903 168.262 64.2397 187.542C59.689 206.823 71.63 226.142 90.9107 230.693C110.191 235.243 129.51 223.302 134.061 204.022Z" fill="#D80621" fill-opacity="0.52"/>
</g>
<path d="M131.312 203.507C135.577 185.437 124.386 167.33 106.316 163.065C88.2452 158.8 70.1388 169.992 65.8738 188.062C61.6088 206.132 72.8003 224.239 90.8706 228.504C108.941 232.769 127.047 221.577 131.312 203.507Z" fill="#D80621"/>
<path style="mix-blend-mode:color-burn" opacity="0.38" d="M131.312 203.507C135.577 185.437 124.386 167.33 106.316 163.065C88.2452 158.8 70.1388 169.992 65.8738 188.062C61.6088 206.132 72.8003 224.239 90.8706 228.504C108.941 232.769 127.047 221.577 131.312 203.507Z" fill="white"/>
<path style="mix-blend-mode:color-burn" opacity="0.1" d="M114.137 165.982C117.481 171.071 119.036 177.274 119.309 183.304C119.655 191.04 115.598 199.879 110.214 205.268C104.579 210.903 96.2136 214.364 88.2494 214.364C79.8782 214.364 72.449 210.881 66.3853 205.358C70.5039 219.263 83.3727 229.412 98.6157 229.412C117.18 229.412 132.234 214.359 132.234 195.794C132.234 182.83 124.888 171.583 114.137 165.977V165.982Z" fill="white"/>
<path opacity="0.66" d="M100.187 162.184C99.9533 162.184 99.7248 162.195 99.4907 162.2C117.732 162.574 132.412 177.466 132.412 195.802C132.412 214.138 117.738 229.03 99.4907 229.403C99.7248 229.403 99.9533 229.42 100.187 229.42C118.752 229.42 133.806 214.367 133.806 195.802C133.806 177.237 118.752 162.184 100.187 162.184Z" fill="url(#paint6_radial_383_4524)"/>
<path style="mix-blend-mode:color-burn" opacity="0.38" d="M66.7417 195.802C66.7417 177.527 81.3271 162.668 99.485 162.206C99.1951 162.2 98.9054 162.184 98.61 162.184C80.0453 162.184 64.9917 177.237 64.9917 195.802C64.9917 214.367 80.0453 229.42 98.61 229.42C98.8998 229.42 99.1896 229.403 99.485 229.398C81.3215 228.935 66.7417 214.077 66.7417 195.802Z" fill="white"/>
<g filter="url(#filter15_d_383_4524)">
<path d="M194.798 266.882H194.792C194.625 265.317 193.717 264.113 192.613 264.113C191.51 264.113 190.596 265.317 190.434 266.882L189.559 275H195.673L194.798 266.882ZM192.613 269.141C191.967 269.141 191.443 268.366 191.443 267.41C191.443 266.454 191.967 265.679 192.613 265.679C193.26 265.679 193.784 266.454 193.784 267.41C193.784 268.366 193.26 269.141 192.613 269.141Z" fill="#D80621" fill-opacity="0.34"/>
<path d="M192.613 266.636V2" stroke="#D80621" stroke-width="0.835997" stroke-miterlimit="10" stroke-linecap="round"/>
</g>
<g filter="url(#filter16_d_383_4524)">
<path d="M218.091 336.09C232.1 322.082 232.1 299.371 218.091 285.363C204.083 271.355 181.372 271.355 167.364 285.363C153.356 299.371 153.356 322.082 167.364 336.09C181.372 350.098 204.083 350.098 218.091 336.09Z" fill="#D80621" fill-opacity="0.52"/>
</g>
<path d="M215.943 334.502C229.072 321.373 229.072 300.088 215.943 286.959C202.815 273.83 181.529 273.83 168.4 286.959C155.271 300.087 155.271 321.373 168.4 334.502C181.529 347.631 202.815 347.631 215.943 334.502Z" fill="#D80621"/>
<path style="mix-blend-mode:color-burn" opacity="0.38" d="M215.943 334.502C229.072 321.373 229.072 300.088 215.943 286.959C202.815 273.83 181.529 273.83 168.4 286.959C155.271 300.087 155.271 321.373 168.4 334.502C181.529 347.631 202.815 347.631 215.943 334.502Z" fill="white"/>
<path style="mix-blend-mode:color-burn" opacity="0.1" d="M207.692 280.912C211.036 286 212.591 292.203 212.864 298.234C213.209 305.969 209.152 314.809 203.768 320.198C198.384 325.588 189.768 329.294 181.804 329.294C173.433 329.294 166.003 325.81 159.939 320.287C164.058 334.193 176.927 344.342 192.17 344.342C210.735 344.342 225.788 329.288 225.788 310.723C225.788 297.76 218.443 286.513 207.692 280.906V280.912Z" fill="white"/>
<path opacity="0.66" d="M193.742 277.113C193.508 277.113 193.279 277.124 193.045 277.13C211.286 277.503 225.967 292.395 225.967 310.732C225.967 329.068 211.292 343.96 193.045 344.333C193.279 344.333 193.508 344.35 193.742 344.35C212.306 344.35 227.36 329.296 227.36 310.732C227.36 292.167 212.306 277.113 193.742 277.113Z" fill="url(#paint7_radial_383_4524)"/>
<path style="mix-blend-mode:color-burn" opacity="0.38" d="M160.296 310.732C160.296 292.457 174.882 277.598 193.04 277.136C192.75 277.13 192.46 277.113 192.165 277.113C173.6 277.113 158.546 292.167 158.546 310.732C158.546 329.296 173.6 344.35 192.165 344.35C192.454 344.35 192.744 344.333 193.04 344.327C174.876 343.865 160.296 329.006 160.296 310.732Z" fill="white"/>
<g style="mix-blend-mode:screen" opacity="0.45">
<path d="M208.692 308.669C207.326 300.655 200.081 300.398 200.081 300.398H185.836C185.836 300.398 178.585 300.655 177.225 308.669C176.751 311.456 178.707 311.172 178.707 311.172H182.213C184.409 311.172 184.336 308.686 184.336 308.686C184.682 306.741 185.863 304.355 189.609 304.355H196.313C200.053 304.355 201.24 306.735 201.586 308.686C201.586 308.686 201.508 311.172 203.709 311.172H207.215C207.215 311.172 209.171 311.456 208.697 308.669H208.692Z" fill="white"/>
<path d="M203.815 317.816C200.254 311.485 198.47 308.91 198.47 308.91H187.586L181.845 318.608C181.845 318.608 177.888 325.34 186.398 325.34H202.037C202.037 325.34 207.382 324.153 203.815 317.816ZM193.181 321.996C190.439 321.996 188.221 319.773 188.221 317.036C188.221 314.3 190.439 312.076 193.181 312.076C195.923 312.076 198.141 314.294 198.141 317.036C198.141 319.778 195.923 321.996 193.181 321.996Z" fill="white"/>
</g>
<g style="mix-blend-mode:screen" opacity="0.45">
<path d="M113.379 195.169C113.379 188.999 107.026 184 99.1896 184C91.3536 184 85 189.005 85 195.169C85 201.333 91.3536 206.338 99.1896 206.338C99.5463 206.338 99.8975 206.321 100.249 206.304C100.75 207.91 102.333 210.685 107.271 211.393C106.234 210.183 104.022 208.378 104.679 205.474C109.79 203.785 113.379 199.806 113.379 195.169ZM91.2087 191.686H106.82V194.16H91.2087V191.686ZM91.2087 199.299V196.824H106.82V199.299H91.2087Z" fill="white"/>
</g>
<g filter="url(#filter17_d_383_4524)">
<path d="M280.75 196.59H280.744C280.577 195.353 279.668 194.402 278.565 194.402C277.461 194.402 276.547 195.353 276.386 196.59L275.511 203.002H281.625L280.75 196.59ZM278.57 198.373C277.924 198.373 277.4 197.761 277.4 197.006C277.4 196.251 277.924 195.639 278.57 195.639C279.217 195.639 279.741 196.251 279.741 197.006C279.741 197.761 279.217 198.373 278.57 198.373Z" fill="#D80621" fill-opacity="0.34"/>
<path d="M278.571 196.394V4" stroke="#D80621" stroke-width="0.835997" stroke-miterlimit="10" stroke-linecap="round"/>
</g>
<g filter="url(#filter18_d_383_4524)">
<path d="M302.091 262.09C316.1 248.082 316.1 225.371 302.091 211.363C288.083 197.355 265.372 197.355 251.364 211.363C237.356 225.371 237.356 248.082 251.364 262.09C265.372 276.098 288.083 276.098 302.091 262.09Z" fill="#D80621" fill-opacity="0.52"/>
</g>
<path d="M308.851 244.433C313.116 226.362 301.925 208.256 283.855 203.991C265.784 199.726 247.678 210.917 243.413 228.988C239.148 247.058 250.339 265.164 268.41 269.429C286.48 273.694 304.586 262.503 308.851 244.433Z" fill="#D80621"/>
<path style="mix-blend-mode:color-burn" opacity="0.38" d="M308.851 244.433C313.116 226.362 301.925 208.256 283.855 203.991C265.784 199.726 247.678 210.917 243.413 228.988C239.148 247.058 250.339 265.164 268.41 269.429C286.48 273.694 304.586 262.503 308.851 244.433Z" fill="white"/>
<path style="mix-blend-mode:color-burn" opacity="0.1" d="M291.693 206.912C295.037 212 296.592 218.203 296.865 224.234C297.21 231.969 293.153 240.809 287.769 246.198C282.385 251.588 273.769 255.294 265.805 255.294C257.433 255.294 250.004 251.81 243.94 246.287C248.059 260.193 260.928 270.342 276.171 270.342C294.736 270.342 309.789 255.288 309.789 236.723C309.789 223.76 302.443 212.513 291.693 206.906V206.912Z" fill="white"/>
<path opacity="0.66" d="M277.742 203.109C277.508 203.109 277.279 203.121 277.045 203.126C295.287 203.5 309.967 218.391 309.967 236.728C309.967 255.064 295.292 269.956 277.045 270.329C277.279 270.329 277.508 270.346 277.742 270.346C296.307 270.346 311.36 255.292 311.36 236.728C311.36 218.163 296.307 203.109 277.742 203.109Z" fill="url(#paint8_radial_383_4524)"/>
<path style="mix-blend-mode:color-burn" opacity="0.38" d="M244.297 236.728C244.297 218.453 258.882 203.594 277.04 203.132C276.75 203.126 276.46 203.109 276.165 203.109C257.6 203.109 242.547 218.163 242.547 236.728C242.547 255.292 257.6 270.346 276.165 270.346C276.455 270.346 276.745 270.329 277.04 270.324C258.877 269.861 244.297 255.003 244.297 236.728Z" fill="white"/>
<g style="mix-blend-mode:screen" opacity="0.45">
<path d="M289.681 244.786V228.016L280.362 236.398L289.681 244.786Z" fill="white"/>
<path d="M276.171 240.172L273.513 237.781L264.194 246.164H288.148L278.83 237.781L276.171 240.172Z" fill="white"/>
<path d="M288.148 226.633H264.194L276.171 237.412L288.148 226.633Z" fill="white"/>
<path d="M262.662 228.016V244.786L271.98 236.398L262.662 228.016Z" fill="white"/>
</g>
<g filter="url(#filter19_d_383_4524)">
<path d="M330.802 87.0228H330.797C330.63 86.1573 329.721 85.4922 328.618 85.4922C327.514 85.4922 326.6 86.1573 326.439 87.0228L325.563 91.51H331.677L330.802 87.0228ZM328.618 88.2756C327.971 88.2756 327.447 87.8474 327.447 87.3189C327.447 86.7905 327.971 86.3623 328.618 86.3623C329.264 86.3623 329.788 86.7905 329.788 87.3189C329.788 87.8474 329.264 88.2756 328.618 88.2756Z" fill="#D80621" fill-opacity="0.34"/>
<path d="M328.618 86.891V2" stroke="#D80621" stroke-width="0.835997" stroke-miterlimit="10" stroke-linecap="round"/>
</g>
<g filter="url(#filter20_d_383_4524)">
<path d="M353.092 150.5C367.1 136.492 367.1 113.781 353.091 99.7729C339.083 85.7648 316.372 85.7648 302.364 99.7729C288.356 113.781 288.356 136.492 302.364 150.501C316.372 164.509 339.083 164.509 353.092 150.5Z" fill="#D80621" fill-opacity="0.52"/>
</g>
<path d="M359.84 132.839C364.105 114.769 352.914 96.6623 334.843 92.3973C316.773 88.1323 298.667 99.3236 294.402 117.394C290.137 135.464 301.328 153.571 319.398 157.836C337.469 162.101 355.575 150.909 359.84 132.839Z" fill="#D80621"/>
<path style="mix-blend-mode:color-burn" opacity="0.38" d="M359.84 132.839C364.105 114.769 352.914 96.6623 334.843 92.3973C316.773 88.1323 298.667 99.3236 294.402 117.394C290.137 135.464 301.328 153.571 319.398 157.836C337.469 162.101 355.575 150.909 359.84 132.839Z" fill="white"/>
<path style="mix-blend-mode:color-burn" opacity="0.1" d="M342.695 95.3181C346.039 100.407 347.594 106.61 347.868 112.64C348.213 120.376 344.156 129.215 338.772 134.604C333.137 140.239 324.772 143.7 316.807 143.7C308.436 143.7 301.007 140.217 294.943 134.694C299.062 148.599 311.931 158.748 327.174 158.748C345.739 158.748 360.792 143.694 360.792 125.13C360.792 112.166 353.446 100.919 342.695 95.3125V95.3181Z" fill="white"/>
<path opacity="0.66" d="M328.74 91.5156C328.506 91.5156 328.277 91.5268 328.043 91.5323C346.284 91.9058 360.965 106.798 360.965 125.134C360.965 143.47 346.29 158.362 328.043 158.735C328.277 158.735 328.506 158.752 328.74 158.752C347.304 158.752 362.358 143.699 362.358 125.134C362.358 106.569 347.304 91.5156 328.74 91.5156Z" fill="url(#paint9_radial_383_4524)"/>
<path style="mix-blend-mode:color-burn" opacity="0.38" d="M295.295 125.134C295.295 106.859 309.88 92.0005 328.038 91.5379C327.748 91.5323 327.459 91.5156 327.163 91.5156C308.598 91.5156 293.545 106.569 293.545 125.134C293.545 143.699 308.598 158.752 327.163 158.752C327.453 158.752 327.743 158.735 328.038 158.73C309.875 158.267 295.295 143.409 295.295 125.134Z" fill="white"/>
<g style="mix-blend-mode:screen" opacity="0.45">
<path d="M333.945 138.547C331.482 139.656 329.353 140.024 326.399 140.024C319.594 140.024 313.608 135.147 313.608 127.11C313.608 119.074 319.717 111.488 328.941 111.488C336.197 111.488 341.364 116.449 341.364 123.337C341.364 129.362 338.003 133.135 333.572 133.135C331.644 133.135 330.25 132.11 330.044 129.975H329.961C328.651 132.026 326.845 133.135 324.632 133.135C322.007 133.135 320.04 131.129 320.04 127.762C320.04 122.719 323.769 118.21 329.676 118.21C331.482 118.21 333.527 118.661 334.553 119.196L333.321 126.82C332.909 129.239 333.199 130.348 334.347 130.387C336.108 130.471 338.321 128.214 338.321 123.46C338.321 118.087 334.876 113.991 328.523 113.991C322.169 113.991 316.757 118.867 316.757 126.742C316.757 133.631 321.104 137.482 327.213 137.482C329.303 137.482 331.56 137.031 333.199 136.212L333.94 138.547H333.945ZM330.295 121.609C329.966 121.526 329.515 121.448 329.024 121.448C326.316 121.448 324.187 124.112 324.187 127.272C324.187 128.832 324.883 129.813 326.237 129.813C327.753 129.813 329.353 127.885 329.721 125.511L330.295 121.615V121.609Z" fill="white"/>
</g>
<g filter="url(#filter21_d_383_4524)">
<path d="M369.191 349.774H369.185C369.018 348.188 368.109 346.969 367.006 346.969C365.902 346.969 364.988 348.188 364.827 349.774L363.952 358H370.066L369.191 349.774ZM367.006 352.071C366.359 352.071 365.835 351.286 365.835 350.317C365.835 349.349 366.359 348.564 367.006 348.564C367.652 348.564 368.176 349.349 368.176 350.317C368.176 351.286 367.652 352.071 367.006 352.071Z" fill="#D80621" fill-opacity="0.34"/>
<path d="M367.006 349.532V2" stroke="#D80621" stroke-width="0.835997" stroke-miterlimit="10" stroke-linecap="round"/>
</g>
<g filter="url(#filter22_d_383_4524)">
<path d="M363.12 427.486C382.931 427.486 398.99 411.426 398.99 391.616C398.99 371.806 382.931 355.746 363.12 355.746C343.31 355.746 327.25 371.806 327.25 391.616C327.25 411.426 343.31 427.486 363.12 427.486Z" fill="#D80621" fill-opacity="0.52"/>
</g>
<path d="M367.957 424.755C386.284 421.78 398.729 404.511 395.754 386.184C392.779 367.857 375.511 355.412 357.184 358.387C338.857 361.362 326.412 378.63 329.387 396.957C332.361 415.284 349.63 427.73 367.957 424.755Z" fill="#D80621"/>
<path style="mix-blend-mode:color-burn" opacity="0.38" d="M367.957 424.755C386.284 421.78 398.729 404.511 395.754 386.184C392.779 367.857 375.511 355.412 357.184 358.387C338.857 361.362 326.412 378.63 329.387 396.957C332.361 415.284 349.63 427.73 367.957 424.755Z" fill="white"/>
<path style="mix-blend-mode:color-burn" opacity="0.1" d="M378.085 361.799C381.429 366.887 382.984 373.09 383.257 379.12C383.602 386.856 379.545 395.695 374.161 401.085C368.777 406.474 360.161 410.181 352.197 410.181C343.826 410.181 336.396 406.697 330.333 401.174C334.451 415.079 347.32 425.228 362.563 425.228C381.128 425.228 396.181 410.175 396.181 391.61C396.181 378.647 388.836 367.4 378.085 361.793V361.799Z" fill="white"/>
<path opacity="0.66" d="M364.134 358C363.9 358 363.672 358.011 363.438 358.017C381.679 358.39 396.359 373.282 396.359 391.618C396.359 409.954 381.685 424.846 363.438 425.22C363.672 425.22 363.9 425.236 364.134 425.236C382.699 425.236 397.752 410.183 397.752 391.618C397.752 373.054 382.699 358 364.134 358Z" fill="url(#paint10_radial_383_4524)"/>
<path style="mix-blend-mode:color-burn" opacity="0.38" d="M330.689 391.618C330.689 373.343 345.275 358.485 363.433 358.022C363.143 358.017 362.853 358 362.558 358C343.993 358 328.939 373.054 328.939 391.618C328.939 410.183 343.993 425.236 362.558 425.236C362.847 425.236 363.137 425.22 363.433 425.214C345.269 424.752 330.689 409.893 330.689 391.618Z" fill="white"/>
<g style="mix-blend-mode:screen" opacity="0.45" filter="url(#filter23_d_383_4524)">
<path d="M373.971 388.908C373.971 382.688 368.866 377.645 362.563 377.645C356.259 377.645 351.154 382.688 351.154 388.908C351.154 391.015 351.739 392.982 352.759 394.665C352.759 394.665 352.771 394.688 352.776 394.693C352.793 394.721 352.81 394.749 352.826 394.771C355.479 399.224 362.568 410.042 362.568 410.042C362.568 410.042 369.652 399.224 372.305 394.771C372.322 394.743 372.338 394.716 372.355 394.688C372.355 394.677 372.366 394.671 372.372 394.66C373.392 392.977 373.977 391.009 373.977 388.903L373.971 388.908ZM362.563 393.233C360.144 393.233 358.182 391.294 358.182 388.908C358.182 386.523 360.144 384.583 362.563 384.583C364.982 384.583 366.943 386.523 366.943 388.908C366.943 391.294 364.982 393.233 362.563 393.233Z" fill="white"/>
</g>
</g>
<defs>
<filter id="filter0_d_383_4524" x="180.693" y="328.009" width="76.1984" height="211.377" filterUnits="userSpaceOnUse" color-interpolation-filters="sRGB">
<feFlood flood-opacity="0" result="BackgroundImageFix"/>
<feColorMatrix in="SourceAlpha" type="matrix" values="0 0 0 0 0 0 0 0 0 0 0 0 0 0 0 0 0 0 127 0" result="hardAlpha"/>
<feOffset dx="1.67199" dy="1.67199"/>
<feGaussianBlur stdDeviation="1.11466"/>
<feColorMatrix type="matrix" values="0 0 0 0 0 0 0 0 0 0 0 0 0 0 0 0 0 0 0.35 0"/>
<feBlend mode="normal" in2="BackgroundImageFix" result="effect1_dropShadow_383_4524"/>
<feBlend mode="normal" in="SourceGraphic" in2="effect1_dropShadow_383_4524" result="shape"/>
</filter>
<filter id="filter1_d_383_4524" x="180.693" y="463.189" width="76.1984" height="76.1969" filterUnits="userSpaceOnUse" color-interpolation-filters="sRGB">
<feFlood flood-opacity="0" result="BackgroundImageFix"/>
<feColorMatrix in="SourceAlpha" type="matrix" values="0 0 0 0 0 0 0 0 0 0 0 0 0 0 0 0 0 0 127 0" result="hardAlpha"/>
<feOffset dx="1.67199" dy="1.67199"/>
<feGaussianBlur stdDeviation="1.11466"/>
<feColorMatrix type="matrix" values="0 0 0 0 0 0 0 0 0 0 0 0 0 0 0 0 0 0 0.35 0"/>
<feBlend mode="normal" in2="BackgroundImageFix" result="effect1_dropShadow_383_4524"/>
<feBlend mode="normal" in="SourceGraphic" in2="effect1_dropShadow_383_4524" result="shape"/>
</filter>
<filter id="filter2_d_383_4524" x="205.154" y="485.645" width="23.9709" height="33.5465" filterUnits="userSpaceOnUse" color-interpolation-filters="sRGB">
<feFlood flood-opacity="0" result="BackgroundImageFix"/>
<feColorMatrix in="SourceAlpha" type="matrix" values="0 0 0 0 0 0 0 0 0 0 0 0 0 0 0 0 0 0 127 0" result="hardAlpha"/>
<feOffset dx="1.1481" dy="1.1481"/>
<feColorMatrix type="matrix" values="0 0 0 0 0 0 0 0 0 0 0 0 0 0 0 0 0 0 0.12 0"/>
<feBlend mode="normal" in2="BackgroundImageFix" result="effect1_dropShadow_383_4524"/>
<feBlend mode="normal" in="SourceGraphic" in2="effect1_dropShadow_383_4524" result="shape"/>
</filter>
<filter id="filter3_d_383_4524" x="390.443" y="1.0247" width="10.5724" height="523.877" filterUnits="userSpaceOnUse" color-interpolation-filters="sRGB">
<feFlood flood-opacity="0" result="BackgroundImageFix"/>
<feColorMatrix in="SourceAlpha" type="matrix" values="0 0 0 0 0 0 0 0 0 0 0 0 0 0 0 0 0 0 127 0" result="hardAlpha"/>
<feOffset dx="1.67199" dy="1.67199"/>
<feGaussianBlur stdDeviation="1.11466"/>
<feColorMatrix type="matrix" values="0 0 0 0 0 0 0 0 0 0 0 0 0 0 0 0 0 0 0.35 0"/>
<feBlend mode="normal" in2="BackgroundImageFix" result="effect1_dropShadow_383_4524"/>
<feBlend mode="normal" in="SourceGraphic" in2="effect1_dropShadow_383_4524" result="shape"/>
</filter>
<filter id="filter4_d_383_4524" x="70.4427" y="352.025" width="10.5724" height="91.8766" filterUnits="userSpaceOnUse" color-interpolation-filters="sRGB">
<feFlood flood-opacity="0" result="BackgroundImageFix"/>
<feColorMatrix in="SourceAlpha" type="matrix" values="0 0 0 0 0 0 0 0 0 0 0 0 0 0 0 0 0 0 127 0" result="hardAlpha"/>
<feOffset dx="1.67199" dy="1.67199"/>
<feGaussianBlur stdDeviation="1.11466"/>
<feColorMatrix type="matrix" values="0 0 0 0 0 0 0 0 0 0 0 0 0 0 0 0 0 0 0.35 0"/>
<feBlend mode="normal" in2="BackgroundImageFix" result="effect1_dropShadow_383_4524"/>
<feBlend mode="normal" in="SourceGraphic" in2="effect1_dropShadow_383_4524" result="shape"/>
</filter>
<filter id="filter5_d_383_4524" x="40.6023" y="342.025" width="387.198" height="410.298" filterUnits="userSpaceOnUse" color-interpolation-filters="sRGB">
<feFlood flood-opacity="0" result="BackgroundImageFix"/>
<feColorMatrix in="SourceAlpha" type="matrix" values="0 0 0 0 0 0 0 0 0 0 0 0 0 0 0 0 0 0 127 0" result="hardAlpha"/>
<feOffset dx="1.67199" dy="1.67199"/>
<feGaussianBlur stdDeviation="1.11466"/>
<feColorMatrix type="matrix" values="0 0 0 0 0 0 0 0 0 0 0 0 0 0 0 0 0 0 0.35 0"/>
<feBlend mode="normal" in2="BackgroundImageFix" result="effect1_dropShadow_383_4524"/>
<feBlend mode="normal" in="SourceGraphic" in2="effect1_dropShadow_383_4524" result="shape"/>
</filter>
<filter id="filter6_d_383_4524" x="297.443" y="342.025" width="10.5724" height="247.877" filterUnits="userSpaceOnUse" color-interpolation-filters="sRGB">
<feFlood flood-opacity="0" result="BackgroundImageFix"/>
<feColorMatrix in="SourceAlpha" type="matrix" values="0 0 0 0 0 0 0 0 0 0 0 0 0 0 0 0 0 0 127 0" result="hardAlpha"/>
<feOffset dx="1.67199" dy="1.67199"/>
<feGaussianBlur stdDeviation="1.11466"/>
<feColorMatrix type="matrix" values="0 0 0 0 0 0 0 0 0 0 0 0 0 0 0 0 0 0 0.35 0"/>
<feBlend mode="normal" in2="BackgroundImageFix" result="effect1_dropShadow_383_4524"/>
<feBlend mode="normal" in="SourceGraphic" in2="effect1_dropShadow_383_4524" result="shape"/>
</filter>
<filter id="filter7_d_383_4524" x="265.602" y="585.033" width="76.1984" height="76.1969" filterUnits="userSpaceOnUse" color-interpolation-filters="sRGB">
<feFlood flood-opacity="0" result="BackgroundImageFix"/>
<feColorMatrix in="SourceAlpha" type="matrix" values="0 0 0 0 0 0 0 0 0 0 0 0 0 0 0 0 0 0 127 0" result="hardAlpha"/>
<feOffset dx="1.67199" dy="1.67199"/>
<feGaussianBlur stdDeviation="1.11466"/>
<feColorMatrix type="matrix" values="0 0 0 0 0 0 0 0 0 0 0 0 0 0 0 0 0 0 0.35 0"/>
<feBlend mode="normal" in2="BackgroundImageFix" result="effect1_dropShadow_383_4524"/>
<feBlend mode="normal" in="SourceGraphic" in2="effect1_dropShadow_383_4524" result="shape"/>
</filter>
<filter id="filter8_d_383_4524" x="351.602" y="511.033" width="76.1984" height="76.1969" filterUnits="userSpaceOnUse" color-interpolation-filters="sRGB">
<feFlood flood-opacity="0" result="BackgroundImageFix"/>
<feColorMatrix in="SourceAlpha" type="matrix" values="0 0 0 0 0 0 0 0 0 0 0 0 0 0 0 0 0 0 127 0" result="hardAlpha"/>
<feOffset dx="1.67199" dy="1.67199"/>
<feGaussianBlur stdDeviation="1.11466"/>
<feColorMatrix type="matrix" values="0 0 0 0 0 0 0 0 0 0 0 0 0 0 0 0 0 0 0.35 0"/>
<feBlend mode="normal" in2="BackgroundImageFix" result="effect1_dropShadow_383_4524"/>
<feBlend mode="normal" in="SourceGraphic" in2="effect1_dropShadow_383_4524" result="shape"/>
</filter>
<filter id="filter9_d_383_4524" x="40.6023" y="434.033" width="76.1984" height="76.1969" filterUnits="userSpaceOnUse" color-interpolation-filters="sRGB">
<feFlood flood-opacity="0" result="BackgroundImageFix"/>
<feColorMatrix in="SourceAlpha" type="matrix" values="0 0 0 0 0 0 0 0 0 0 0 0 0 0 0 0 0 0 127 0" result="hardAlpha"/>
<feOffset dx="1.67199" dy="1.67199"/>
<feGaussianBlur stdDeviation="1.11466"/>
<feColorMatrix type="matrix" values="0 0 0 0 0 0 0 0 0 0 0 0 0 0 0 0 0 0 0.35 0"/>
<feBlend mode="normal" in2="BackgroundImageFix" result="effect1_dropShadow_383_4524"/>
<feBlend mode="normal" in="SourceGraphic" in2="effect1_dropShadow_383_4524" result="shape"/>
</filter>
<filter id="filter10_d_383_4524" x="111.602" y="676.126" width="76.1984" height="76.1969" filterUnits="userSpaceOnUse" color-interpolation-filters="sRGB">
<feFlood flood-opacity="0" result="BackgroundImageFix"/>
<feColorMatrix in="SourceAlpha" type="matrix" values="0 0 0 0 0 0 0 0 0 0 0 0 0 0 0 0 0 0 127 0" result="hardAlpha"/>
<feOffset dx="1.67199" dy="1.67199"/>
<feGaussianBlur stdDeviation="1.11466"/>
<feColorMatrix type="matrix" values="0 0 0 0 0 0 0 0 0 0 0 0 0 0 0 0 0 0 0.35 0"/>
<feBlend mode="normal" in2="BackgroundImageFix" result="effect1_dropShadow_383_4524"/>
<feBlend mode="normal" in="SourceGraphic" in2="effect1_dropShadow_383_4524" result="shape"/>
</filter>
<filter id="filter11_d_383_4524" x="38.3045" y="0.0246997" width="10.5724" height="288.166" filterUnits="userSpaceOnUse" color-interpolation-filters="sRGB">
<feFlood flood-opacity="0" result="BackgroundImageFix"/>
<feColorMatrix in="SourceAlpha" type="matrix" values="0 0 0 0 0 0 0 0 0 0 0 0 0 0 0 0 0 0 127 0" result="hardAlpha"/>
<feOffset dx="1.67199" dy="1.67199"/>
<feGaussianBlur stdDeviation="1.11466"/>
<feColorMatrix type="matrix" values="0 0 0 0 0 0 0 0 0 0 0 0 0 0 0 0 0 0 0.35 0"/>
<feBlend mode="normal" in2="BackgroundImageFix" result="effect1_dropShadow_383_4524"/>
<feBlend mode="normal" in="SourceGraphic" in2="effect1_dropShadow_383_4524" result="shape"/>
</filter>
<filter id="filter12_d_383_4524" x="4.60234" y="281.478" width="76.1984" height="76.1969" filterUnits="userSpaceOnUse" color-interpolation-filters="sRGB">
<feFlood flood-opacity="0" result="BackgroundImageFix"/>
<feColorMatrix in="SourceAlpha" type="matrix" values="0 0 0 0 0 0 0 0 0 0 0 0 0 0 0 0 0 0 127 0" result="hardAlpha"/>
<feOffset dx="1.67199" dy="1.67199"/>
<feGaussianBlur stdDeviation="1.11466"/>
<feColorMatrix type="matrix" values="0 0 0 0 0 0 0 0 0 0 0 0 0 0 0 0 0 0 0.35 0"/>
<feBlend mode="normal" in2="BackgroundImageFix" result="effect1_dropShadow_383_4524"/>
<feBlend mode="normal" in="SourceGraphic" in2="effect1_dropShadow_383_4524" result="shape"/>
</filter>
<filter id="filter13_d_383_4524" x="96.448" y="1.0247" width="10.5724" height="165.056" filterUnits="userSpaceOnUse" color-interpolation-filters="sRGB">
<feFlood flood-opacity="0" result="BackgroundImageFix"/>
<feColorMatrix in="SourceAlpha" type="matrix" values="0 0 0 0 0 0 0 0 0 0 0 0 0 0 0 0 0 0 127 0" result="hardAlpha"/>
<feOffset dx="1.67199" dy="1.67199"/>
<feGaussianBlur stdDeviation="1.11466"/>
<feColorMatrix type="matrix" values="0 0 0 0 0 0 0 0 0 0 0 0 0 0 0 0 0 0 0.35 0"/>
<feBlend mode="normal" in2="BackgroundImageFix" result="effect1_dropShadow_383_4524"/>
<feBlend mode="normal" in="SourceGraphic" in2="effect1_dropShadow_383_4524" result="shape"/>
</filter>
<filter id="filter14_d_383_4524" x="62.7151" y="159.345" width="76.2145" height="76.2165" filterUnits="userSpaceOnUse" color-interpolation-filters="sRGB">
<feFlood flood-opacity="0" result="BackgroundImageFix"/>
<feColorMatrix in="SourceAlpha" type="matrix" values="0 0 0 0 0 0 0 0 0 0 0 0 0 0 0 0 0 0 127 0" result="hardAlpha"/>
<feOffset dx="1.67199" dy="1.67199"/>
<feGaussianBlur stdDeviation="1.11466"/>
<feColorMatrix type="matrix" values="0 0 0 0 0 0 0 0 0 0 0 0 0 0 0 0 0 0 0.35 0"/>
<feBlend mode="normal" in2="BackgroundImageFix" result="effect1_dropShadow_383_4524"/>
<feBlend mode="normal" in="SourceGraphic" in2="effect1_dropShadow_383_4524" result="shape"/>
</filter>
<filter id="filter15_d_383_4524" x="189.002" y="1.0247" width="10.5724" height="277.877" filterUnits="userSpaceOnUse" color-interpolation-filters="sRGB">
<feFlood flood-opacity="0" result="BackgroundImageFix"/>
<feColorMatrix in="SourceAlpha" type="matrix" values="0 0 0 0 0 0 0 0 0 0 0 0 0 0 0 0 0 0 127 0" result="hardAlpha"/>
<feOffset dx="1.67199" dy="1.67199"/>
<feGaussianBlur stdDeviation="1.11466"/>
<feColorMatrix type="matrix" values="0 0 0 0 0 0 0 0 0 0 0 0 0 0 0 0 0 0 0.35 0"/>
<feBlend mode="normal" in2="BackgroundImageFix" result="effect1_dropShadow_383_4524"/>
<feBlend mode="normal" in="SourceGraphic" in2="effect1_dropShadow_383_4524" result="shape"/>
</filter>
<filter id="filter16_d_383_4524" x="156.301" y="274.298" width="76.1984" height="76.2008" filterUnits="userSpaceOnUse" color-interpolation-filters="sRGB">
<feFlood flood-opacity="0" result="BackgroundImageFix"/>
<feColorMatrix in="SourceAlpha" type="matrix" values="0 0 0 0 0 0 0 0 0 0 0 0 0 0 0 0 0 0 127 0" result="hardAlpha"/>
<feOffset dx="1.67199" dy="1.67199"/>
<feGaussianBlur stdDeviation="1.11466"/>
<feColorMatrix type="matrix" values="0 0 0 0 0 0 0 0 0 0 0 0 0 0 0 0 0 0 0.35 0"/>
<feBlend mode="normal" in2="BackgroundImageFix" result="effect1_dropShadow_383_4524"/>
<feBlend mode="normal" in="SourceGraphic" in2="effect1_dropShadow_383_4524" result="shape"/>
</filter>
<filter id="filter17_d_383_4524" x="274.953" y="3.0247" width="10.5724" height="203.877" filterUnits="userSpaceOnUse" color-interpolation-filters="sRGB">
<feFlood flood-opacity="0" result="BackgroundImageFix"/>
<feColorMatrix in="SourceAlpha" type="matrix" values="0 0 0 0 0 0 0 0 0 0 0 0 0 0 0 0 0 0 127 0" result="hardAlpha"/>
<feOffset dx="1.67199" dy="1.67199"/>
<feGaussianBlur stdDeviation="1.11466"/>
<feColorMatrix type="matrix" values="0 0 0 0 0 0 0 0 0 0 0 0 0 0 0 0 0 0 0.35 0"/>
<feBlend mode="normal" in2="BackgroundImageFix" result="effect1_dropShadow_383_4524"/>
<feBlend mode="normal" in="SourceGraphic" in2="effect1_dropShadow_383_4524" result="shape"/>
</filter>
<filter id="filter18_d_383_4524" x="240.301" y="200.298" width="76.1984" height="76.2008" filterUnits="userSpaceOnUse" color-interpolation-filters="sRGB">
<feFlood flood-opacity="0" result="BackgroundImageFix"/>
<feColorMatrix in="SourceAlpha" type="matrix" values="0 0 0 0 0 0 0 0 0 0 0 0 0 0 0 0 0 0 127 0" result="hardAlpha"/>
<feOffset dx="1.67199" dy="1.67199"/>
<feGaussianBlur stdDeviation="1.11466"/>
<feColorMatrix type="matrix" values="0 0 0 0 0 0 0 0 0 0 0 0 0 0 0 0 0 0 0.35 0"/>
<feBlend mode="normal" in2="BackgroundImageFix" result="effect1_dropShadow_383_4524"/>
<feBlend mode="normal" in="SourceGraphic" in2="effect1_dropShadow_383_4524" result="shape"/>
</filter>
<filter id="filter19_d_383_4524" x="325.006" y="1.0247" width="10.5724" height="94.3883" filterUnits="userSpaceOnUse" color-interpolation-filters="sRGB">
<feFlood flood-opacity="0" result="BackgroundImageFix"/>
<feColorMatrix in="SourceAlpha" type="matrix" values="0 0 0 0 0 0 0 0 0 0 0 0 0 0 0 0 0 0 127 0" result="hardAlpha"/>
<feOffset dx="1.67199" dy="1.67199"/>
<feGaussianBlur stdDeviation="1.11466"/>
<feColorMatrix type="matrix" values="0 0 0 0 0 0 0 0 0 0 0 0 0 0 0 0 0 0 0.35 0"/>
<feBlend mode="normal" in2="BackgroundImageFix" result="effect1_dropShadow_383_4524"/>
<feBlend mode="normal" in="SourceGraphic" in2="effect1_dropShadow_383_4524" result="shape"/>
</filter>
<filter id="filter20_d_383_4524" x="291.301" y="88.7083" width="76.1984" height="76.2008" filterUnits="userSpaceOnUse" color-interpolation-filters="sRGB">
<feFlood flood-opacity="0" result="BackgroundImageFix"/>
<feColorMatrix in="SourceAlpha" type="matrix" values="0 0 0 0 0 0 0 0 0 0 0 0 0 0 0 0 0 0 127 0" result="hardAlpha"/>
<feOffset dx="1.67199" dy="1.67199"/>
<feGaussianBlur stdDeviation="1.11466"/>
<feColorMatrix type="matrix" values="0 0 0 0 0 0 0 0 0 0 0 0 0 0 0 0 0 0 0.35 0"/>
<feBlend mode="normal" in2="BackgroundImageFix" result="effect1_dropShadow_383_4524"/>
<feBlend mode="normal" in="SourceGraphic" in2="effect1_dropShadow_383_4524" result="shape"/>
</filter>
<filter id="filter21_d_383_4524" x="363.394" y="1.0247" width="10.5724" height="360.877" filterUnits="userSpaceOnUse" color-interpolation-filters="sRGB">
<feFlood flood-opacity="0" result="BackgroundImageFix"/>
<feColorMatrix in="SourceAlpha" type="matrix" values="0 0 0 0 0 0 0 0 0 0 0 0 0 0 0 0 0 0 127 0" result="hardAlpha"/>
<feOffset dx="1.67199" dy="1.67199"/>
<feGaussianBlur stdDeviation="1.11466"/>
<feColorMatrix type="matrix" values="0 0 0 0 0 0 0 0 0 0 0 0 0 0 0 0 0 0 0.35 0"/>
<feBlend mode="normal" in2="BackgroundImageFix" result="effect1_dropShadow_383_4524"/>
<feBlend mode="normal" in="SourceGraphic" in2="effect1_dropShadow_383_4524" result="shape"/>
</filter>
<filter id="filter22_d_383_4524" x="326.693" y="355.189" width="76.1984" height="76.1969" filterUnits="userSpaceOnUse" color-interpolation-filters="sRGB">
<feFlood flood-opacity="0" result="BackgroundImageFix"/>
<feColorMatrix in="SourceAlpha" type="matrix" values="0 0 0 0 0 0 0 0 0 0 0 0 0 0 0 0 0 0 127 0" result="hardAlpha"/>
<feOffset dx="1.67199" dy="1.67199"/>
<feGaussianBlur stdDeviation="1.11466"/>
<feColorMatrix type="matrix" values="0 0 0 0 0 0 0 0 0 0 0 0 0 0 0 0 0 0 0.35 0"/>
<feBlend mode="normal" in2="BackgroundImageFix" result="effect1_dropShadow_383_4524"/>
<feBlend mode="normal" in="SourceGraphic" in2="effect1_dropShadow_383_4524" result="shape"/>
</filter>
<filter id="filter23_d_383_4524" x="351.154" y="377.645" width="23.9709" height="33.5465" filterUnits="userSpaceOnUse" color-interpolation-filters="sRGB">
<feFlood flood-opacity="0" result="BackgroundImageFix"/>
<feColorMatrix in="SourceAlpha" type="matrix" values="0 0 0 0 0 0 0 0 0 0 0 0 0 0 0 0 0 0 127 0" result="hardAlpha"/>
<feOffset dx="1.1481" dy="1.1481"/>
<feColorMatrix type="matrix" values="0 0 0 0 0 0 0 0 0 0 0 0 0 0 0 0 0 0 0.12 0"/>
<feBlend mode="normal" in2="BackgroundImageFix" result="effect1_dropShadow_383_4524"/>
<feBlend mode="normal" in="SourceGraphic" in2="effect1_dropShadow_383_4524" result="shape"/>
</filter>
<radialGradient id="paint0_radial_383_4524" cx="0" cy="0" r="1" gradientUnits="userSpaceOnUse" gradientTransform="translate(234.592 499.618) scale(26.6906 26.6906)">
<stop stop-color="white" stop-opacity="0"/>
<stop offset="1" stop-color="white"/>
</radialGradient>
<radialGradient id="paint1_radial_383_4524" cx="0" cy="0" r="1" gradientUnits="userSpaceOnUse" gradientTransform="translate(319.503 621.458) scale(26.6906 26.6906)">
<stop stop-color="white" stop-opacity="0"/>
<stop offset="1" stop-color="white"/>
</radialGradient>
<radialGradient id="paint2_radial_383_4524" cx="0" cy="0" r="1" gradientUnits="userSpaceOnUse" gradientTransform="translate(405.503 547.458) scale(26.6906 26.6906)">
<stop stop-color="white" stop-opacity="0"/>
<stop offset="1" stop-color="white"/>
</radialGradient>
<radialGradient id="paint3_radial_383_4524" cx="0" cy="0" r="1" gradientUnits="userSpaceOnUse" gradientTransform="translate(94.5025 470.458) scale(26.6906 26.6906)">
<stop stop-color="white" stop-opacity="0"/>
<stop offset="1" stop-color="white"/>
</radialGradient>
<radialGradient id="paint4_radial_383_4524" cx="0" cy="0" r="1" gradientUnits="userSpaceOnUse" gradientTransform="translate(165.503 712.552) scale(26.6906 26.6906)">
<stop stop-color="white" stop-opacity="0"/>
<stop offset="1" stop-color="white"/>
</radialGradient>
<radialGradient id="paint5_radial_383_4524" cx="0" cy="0" r="1" gradientUnits="userSpaceOnUse" gradientTransform="translate(58.5025 317.903) scale(26.6906 26.6906)">
<stop stop-color="white" stop-opacity="0"/>
<stop offset="1" stop-color="white"/>
</radialGradient>
<radialGradient id="paint6_radial_383_4524" cx="0" cy="0" r="1" gradientUnits="userSpaceOnUse" gradientTransform="translate(116.645 195.802) scale(0.278666)">
<stop stop-color="white" stop-opacity="0"/>
<stop offset="1" stop-color="white"/>
</radialGradient>
<radialGradient id="paint7_radial_383_4524" cx="0" cy="0" r="1" gradientUnits="userSpaceOnUse" gradientTransform="translate(210.2 310.732) scale(26.6906 26.6906)">
<stop stop-color="white" stop-opacity="0"/>
<stop offset="1" stop-color="white"/>
</radialGradient>
<radialGradient id="paint8_radial_383_4524" cx="0" cy="0" r="1" gradientUnits="userSpaceOnUse" gradientTransform="translate(294.2 236.728) scale(26.6906 26.6906)">
<stop stop-color="white" stop-opacity="0"/>
<stop offset="1" stop-color="white"/>
</radialGradient>
<radialGradient id="paint9_radial_383_4524" cx="0" cy="0" r="1" gradientUnits="userSpaceOnUse" gradientTransform="translate(345.198 125.134) scale(26.6906 26.6906)">
<stop stop-color="white" stop-opacity="0"/>
<stop offset="1" stop-color="white"/>
</radialGradient>
<radialGradient id="paint10_radial_383_4524" cx="0" cy="0" r="1" gradientUnits="userSpaceOnUse" gradientTransform="translate(380.592 391.618) scale(26.6906 26.6906)">
<stop stop-color="white" stop-opacity="0"/>
<stop offset="1" stop-color="white"/>
</radialGradient>
</defs>
</svg>
